<svg xmlns="http://www.w3.org/2000/svg" width="677" height="685" viewBox="0 0 677 685" version="1.1">
	<path d="M 330.500 48.073 C 317.850 48.466, 304.222 48.548, 300.215 48.253 C 293.721 47.776, 292.681 47.951, 290.643 49.866 C 289.386 51.047, 285.617 53.923, 282.268 56.257 C 278.919 58.590, 273.294 62.975, 269.769 66 C 266.244 69.025, 251.258 81.611, 236.467 93.969 C 221.676 106.326, 206.407 119.353, 202.537 122.917 C 190.499 134.002, 174.947 150.124, 172.401 154.157 C 169.666 158.489, 166.485 166.736, 165.518 172 C 165.164 173.925, 164.474 176.625, 163.983 178 C 162.696 181.610, 159.956 203.453, 158.966 218 C 158.135 230.206, 156.483 354.726, 156.518 402.500 C 156.528 417.149, 157.052 430.007, 157.861 435.500 C 159.144 444.210, 164.650 467.616, 169.034 483 C 170.210 487.125, 172.735 496.575, 174.645 504 C 178.516 519.048, 180.666 527.226, 184.241 540.500 C 185.575 545.450, 187.678 554, 188.915 559.500 C 190.152 565, 191.543 570.457, 192.005 571.627 C 193.256 574.795, 195.705 585.352, 197.506 595.343 C 199.151 604.472, 207.467 626.858, 209.504 627.640 C 210.137 627.883, 211.788 627.651, 213.172 627.125 C 215.687 626.168, 215.690 626.153, 216.319 609.334 C 217.217 585.347, 219.883 570.050, 226.615 550.272 C 228.529 544.646, 230.747 538.796, 231.542 537.272 C 232.337 535.747, 232.990 533.915, 232.994 533.199 C 233.004 531.155, 240.533 513.803, 247.834 499 C 254.246 485.998, 254.860 485.149, 264.462 476 C 269.946 470.775, 282.138 458.850, 291.555 449.500 C 306.554 434.609, 312.885 427.623, 331.569 405.350 C 336.137 399.904, 342.991 389.872, 351.277 376.500 C 354.345 371.550, 359.039 365.025, 361.709 362 C 364.379 358.975, 367.361 355.240, 368.337 353.700 C 370.081 350.948, 370.058 350.785, 366.924 343.986 C 365.171 340.184, 363.009 336.414, 362.119 335.609 C 361.228 334.804, 357.191 332.816, 353.147 331.192 C 349.103 329.567, 345.002 327.397, 344.034 326.369 C 342.306 324.534, 333.858 306.797, 332.481 302.114 C 331.829 299.900, 331.985 299.777, 334.639 300.415 C 336.213 300.794, 340.144 302.717, 343.376 304.690 C 347.481 307.197, 351.323 308.604, 356.123 309.360 C 361.816 310.256, 362.904 310.727, 362.467 312.105 C 361.764 314.318, 370.047 320.258, 379.359 324.221 C 383.233 325.869, 391.600 329.889, 397.952 333.153 C 404.303 336.417, 413.325 340.643, 418 342.544 C 423.770 344.890, 427.350 347.030, 429.145 349.209 C 431.463 352.021, 431.995 352.249, 433.446 351.045 C 434.371 350.277, 434.969 348.596, 434.801 347.235 C 434.547 345.181, 433.401 344.438, 427.500 342.500 C 413.078 337.764, 368.696 316.744, 366.866 313.782 C 365.840 312.123, 366.658 311.483, 368.226 312.720 C 368.927 313.272, 370.829 314.043, 372.454 314.432 C 374.079 314.822, 379.062 316.909, 383.527 319.070 C 387.993 321.232, 392.382 323, 393.282 323 C 396.347 323, 401.950 319.551, 401.975 317.648 C 402.014 314.737, 389.351 303.391, 380 297.959 C 368.812 291.460, 368.427 291.106, 360.089 279.711 C 356.150 274.327, 351.836 269.508, 350.502 269.001 C 349.169 268.494, 345.698 267.845, 342.789 267.559 C 337.873 267.076, 337.747 267.115, 341 268.115 C 350.149 270.927, 351.637 272.076, 359.592 282.464 C 363.925 288.124, 368.428 293.372, 369.598 294.127 C 376.111 298.331, 385.887 305.154, 388.471 307.298 C 391.064 309.451, 391.402 310.319, 391.130 314.132 C 390.959 316.534, 390.673 318.649, 390.495 318.831 C 390.100 319.235, 385.695 316.971, 385 316.006 C 384.725 315.624, 381.125 314.152, 377 312.734 C 356.390 305.649, 351.592 303.254, 347.542 298.027 C 341.857 290.690, 338.551 288.263, 333.245 287.534 C 327.140 286.694, 327.026 286.323, 329.544 275.467 C 331.608 266.567, 331.081 266.007, 320.628 265.976 C 312.268 265.952, 305.443 264.843, 303.851 263.251 C 303.313 262.713, 303.735 259.954, 304.897 256.424 C 307.060 249.850, 310.039 241.628, 310.382 241.285 C 310.897 240.770, 322.854 244.844, 325.555 246.455 C 327.474 247.599, 327.855 247.675, 326.650 246.672 C 324.651 245.010, 325.187 243, 327.629 243 C 330.860 243, 328.521 238.641, 323.805 235.876 C 321.223 234.362, 319.324 233.682, 319.586 234.364 C 319.848 235.047, 321.399 236.395, 323.031 237.359 C 327.814 240.185, 326.756 241.346, 319.963 240.730 C 312.103 240.018, 310.832 238.931, 311.659 233.633 C 312.013 231.360, 312.629 229.275, 313.026 229 C 314.208 228.182, 312.111 223.797, 310.751 224.244 C 310.063 224.470, 309.275 226.610, 309 229 C 308.725 231.390, 308.012 233.505, 307.415 233.701 C 306.818 233.897, 304.454 231.383, 302.161 228.114 C 299.868 224.846, 296.611 221.009, 294.923 219.589 L 291.854 217.006 294.492 216.003 C 295.943 215.451, 297.499 215, 297.949 215 C 299.034 215, 303.655 209.704, 314.149 196.436 C 318.906 190.421, 326.356 181.651, 330.705 176.946 C 335.054 172.241, 339.363 167.319, 340.282 166.008 L 341.952 163.624 351.226 165.282 C 369.505 168.549, 384.881 170.203, 393.726 169.855 L 402.719 169.500 411.340 163.500 C 416.081 160.200, 421.218 156.825, 422.754 156 C 424.290 155.175, 428.606 152.755, 432.346 150.623 C 436.129 148.466, 439.506 147.135, 439.956 147.623 C 440.402 148.105, 441.072 150.641, 441.446 153.257 C 442.271 159.042, 440.673 160.168, 435.285 157.599 C 433.342 156.672, 431.585 156.082, 431.380 156.287 C 430.649 157.018, 436.253 161.568, 442.820 165.575 L 449.500 169.650 450.076 180.575 C 450.534 189.260, 451.184 192.730, 453.246 197.500 C 454.742 200.961, 455.413 203.654, 454.830 203.863 C 453.339 204.400, 445.695 198.617, 444.265 195.871 C 443.585 194.567, 443.023 194.063, 443.015 194.750 C 442.995 196.411, 439.554 196.338, 436.200 194.605 C 434.715 193.838, 426.531 190.896, 418.013 188.068 C 401.710 182.655, 397.026 180.249, 405 181.385 C 415.520 182.884, 424.303 185.441, 424.745 187.134 C 425.323 189.342, 430.021 190.572, 431.140 188.808 C 432.406 186.812, 432.193 186.169, 429.750 184.610 C 427.251 183.015, 403.512 178, 398.463 178 C 394.551 178, 392.748 179.941, 393.178 183.690 C 393.490 186.416, 393.678 186.501, 399.500 186.543 C 403.556 186.572, 407.606 187.431, 412 189.193 C 415.575 190.628, 421.650 192.807, 425.500 194.037 C 435.517 197.236, 437.997 198.671, 438.015 201.276 C 438.039 204.738, 438.948 205.372, 447.500 207.893 C 466.174 213.399, 466.700 213.499, 469.412 212.047 C 472.624 210.328, 472.015 209.437, 465.625 206.514 C 456.438 202.312, 454.178 197.685, 453.299 181.286 L 452.697 170.053 455.991 170.997 C 461.831 172.672, 462.655 170.451, 457.802 166.114 L 454.603 163.256 457.752 161.628 C 459.484 160.733, 462.161 159.979, 463.700 159.953 C 466.138 159.912, 465.906 159.674, 461.902 158.108 C 456.154 155.859, 446.594 149.571, 444.098 146.397 C 443.061 145.079, 441.460 144, 440.541 144 C 438.143 144, 420.648 153.571, 413 159.067 C 402.445 166.653, 401.405 167, 389.233 167 C 383.257 167, 375.922 166.570, 372.934 166.045 C 369.945 165.520, 361.913 164.636, 355.084 164.079 C 348.255 163.523, 342.324 162.715, 341.905 162.284 C 340.240 160.573, 343.960 125.407, 347.436 110 C 350.484 96.491, 362.160 56.967, 363.657 55.092 C 364.166 54.454, 389.290 64.700, 401.500 70.525 C 427.453 82.905, 445.118 99.226, 465.135 129.319 C 468.494 134.369, 473.190 140.795, 475.571 143.600 C 478.714 147.305, 479.599 149.001, 478.801 149.799 C 478.197 150.403, 477.605 152.383, 477.485 154.199 C 477.365 156.014, 476.911 158.584, 476.475 159.908 C 475.784 162.011, 475.947 162.247, 477.756 161.774 C 480.060 161.171, 480.963 163.109, 480.986 168.712 C 481.010 174.266, 484.962 183.014, 489.493 187.546 C 495.398 193.450, 501.276 195, 517.768 195 L 530.728 195 531.364 199.640 C 531.714 202.191, 532 209.443, 532 215.754 L 532 227.228 527.750 231.131 C 517.452 240.588, 507.560 246.217, 496.365 248.991 C 493.398 249.726, 492.060 250.649, 491.630 252.258 C 490.960 254.768, 493.151 257, 496.287 257 C 497.335 257, 500.736 257.740, 503.846 258.645 C 508.689 260.054, 510.736 260.126, 518.113 259.145 C 522.851 258.515, 527.445 258, 528.324 258 C 530.366 258, 540.802 278.607, 539.437 279.942 C 538.130 281.219, 530 279.543, 524.781 276.922 C 518.246 273.640, 504.232 264.048, 503.613 262.433 C 502.719 260.104, 501 260.797, 501 263.487 C 501 266.319, 503.529 268.131, 517 274.954 C 521.675 277.322, 526.625 279.906, 528 280.697 C 529.375 281.488, 532.155 282.893, 534.177 283.818 C 537.158 285.181, 538.484 286.814, 541.177 292.437 C 543.005 296.252, 545.481 300.839, 546.681 302.629 L 548.861 305.884 539.681 308.842 C 534.631 310.469, 523.975 314.491, 516 317.781 C 496.289 325.910, 484.132 329.745, 469.500 332.450 L 461.500 333.930 469.500 333.329 L 477.500 332.728 472.281 337.429 C 466.043 343.047, 451.946 361.443, 445.574 372.279 C 443.058 376.557, 441 380.275, 441 380.540 C 441 380.805, 440.112 382.929, 439.027 385.261 C 436.832 389.977, 430.005 410.614, 427.949 418.750 C 426.563 424.233, 425 425.734, 425 421.582 C 425 420.252, 424.733 418.469, 424.408 417.620 C 423.532 415.338, 411.597 405.974, 398.144 397.015 C 382.601 386.663, 375.556 379.646, 370.750 369.731 C 368.688 365.476, 367 361.321, 367 360.497 C 367 359.674, 366.550 359, 366 359 C 364.536 359, 364.766 360.886, 366.915 366.500 C 371.807 379.276, 378.694 387.290, 392.903 396.736 C 409.442 407.731, 419.056 415.208, 420.694 418.349 C 422.908 422.595, 422.990 435.391, 420.830 439.500 C 419.962 441.150, 418.276 447.675, 417.082 454 C 415.888 460.325, 414.282 468.650, 413.512 472.500 C 412.743 476.350, 411.412 484.878, 410.555 491.451 C 409.698 498.025, 408.594 503.806, 408.102 504.298 C 407.317 505.083, 401.377 495.804, 399.487 490.840 C 399.077 489.763, 396.334 488.591, 391.678 487.503 C 380.798 484.960, 371.957 481.989, 367.355 479.329 C 363.550 477.130, 363.078 477.065, 361.605 478.538 C 360.002 480.140, 359.330 486.005, 360.750 485.994 C 361.163 485.991, 363.114 485.541, 365.086 484.993 C 367.806 484.237, 369.857 484.376, 373.586 485.568 C 376.289 486.433, 382.770 488.157, 387.990 489.400 L 397.480 491.660 402.194 500.973 C 406.756 509.985, 406.810 510.193, 403.861 507.393 C 400.656 504.351, 396 496.141, 396 493.533 C 396 492.690, 395.550 492, 395 492 C 393.616 492, 393.721 492.765, 395.941 498.840 C 397.009 501.761, 399.535 506.167, 401.554 508.631 L 405.225 513.111 404.154 519.806 C 403.565 523.488, 402.384 530.775, 401.530 536 C 396.740 565.297, 396.480 571.804, 399.878 577.302 C 403.097 582.512, 407.421 585.970, 426.939 598.946 C 436.598 605.367, 450.303 614.539, 457.396 619.328 C 470.815 628.388, 473.451 629.626, 476.951 628.515 C 478.945 627.883, 479.040 627.229, 478.904 615.141 C 478.765 602.881, 480.367 591, 482.159 591 C 482.622 591, 483 590.325, 483 589.500 C 483 587.664, 481.938 587.593, 479.636 589.277 C 476.999 591.205, 476.050 597.125, 476.024 611.808 L 476 625.115 471.250 622.698 C 468.637 621.369, 463.446 618.755, 459.714 616.891 C 455.981 615.026, 450.806 611.865, 448.214 609.867 C 445.621 607.870, 436.568 601.795, 428.096 596.367 C 410.417 585.043, 404.069 579.698, 401.480 573.955 C 399.709 570.028, 399.708 569.465, 401.436 557.196 C 402.420 550.213, 403.432 542.925, 403.685 541 C 403.939 539.075, 404.537 535.925, 405.015 534 C 405.493 532.075, 406.196 527.209, 406.578 523.186 C 406.972 519.023, 407.888 515.255, 408.704 514.439 C 409.565 513.578, 409.876 512.184, 409.483 510.945 C 409.123 509.811, 409.294 506.773, 409.863 504.192 C 410.816 499.870, 412.249 491.698, 414.983 475 C 417.256 461.119, 418.930 452.573, 419.864 450.089 C 420.399 448.665, 421.108 446.262, 421.438 444.750 C 421.768 443.238, 422.389 442, 422.818 442 C 423.247 442, 423.098 446.548, 422.488 452.108 C 421.396 462.058, 421.413 462.231, 423.574 463.216 C 425.720 464.194, 425.737 464.342, 424.315 469.858 C 422.716 476.062, 421.331 508.619, 422.419 514.421 C 423.224 518.710, 428.807 523.514, 431.860 522.544 C 432.936 522.203, 435.694 519.490, 437.989 516.515 C 441.310 512.210, 442.094 510.431, 441.831 507.803 C 441.520 504.701, 441.682 504.509, 444.500 504.643 C 448.577 504.837, 461.260 502.387, 474.267 498.893 C 488.754 495, 489.476 495.053, 492.093 500.183 C 496.827 509.462, 501.043 523.284, 506.887 548.684 C 509.557 560.290, 509.572 562, 507 562 C 504.554 562, 504.362 564.991, 506.409 571.215 C 507.184 573.572, 508.122 576.973, 508.494 578.774 C 509.413 583.228, 516.165 600.403, 519.924 607.849 C 523.720 615.369, 525.812 616.722, 529.346 613.942 L 531.906 611.929 529.188 607.214 C 524.396 598.906, 514.461 570.442, 511.486 556.500 C 510.665 552.650, 509.289 546.125, 508.430 542 C 506.685 533.623, 500.481 511.094, 498.672 506.564 C 495.983 499.829, 493.189 495.412, 490.748 494.037 C 487.895 492.430, 485.495 492.787, 471 496.975 C 449.803 503.098, 445.100 503.567, 437.813 500.282 C 432.072 497.693, 429.522 493.250, 427.945 483.083 C 426.698 475.045, 427.763 465.567, 430.973 456.142 C 433.977 447.323, 448.169 413.612, 456.293 396 C 463.027 381.400, 477.362 360.635, 487.127 351.336 C 492.100 346.600, 508.828 335.395, 520.067 329.272 C 528.692 324.573, 542.925 315.097, 549.431 309.721 L 552.361 307.300 550.181 302.661 C 548.981 300.109, 548 297.641, 548 297.177 C 548 296.712, 546.200 293.762, 544 290.621 C 539.573 284.302, 539.315 283.477, 541.500 282.638 C 543.754 281.773, 543.329 278.678, 539.933 271.228 C 536.879 264.531, 536.870 264.458, 537.933 255.330 C 539.695 240.191, 539.414 236.041, 536.414 232.911 L 533.829 230.212 533.953 212.261 C 534.047 198.698, 533.762 194.053, 532.789 193.262 C 532.016 192.634, 525.693 192.236, 517 192.268 C 500.049 192.329, 496.020 191.177, 490.460 184.682 C 486.383 179.919, 483.019 169.803, 482.864 161.838 C 482.807 158.902, 482.323 155.664, 481.788 154.643 C 481.188 153.499, 481.172 152.428, 481.744 151.856 C 483.133 150.467, 478.895 142.353, 470.971 131.231 C 446.667 97.118, 434.042 84.695, 410.500 71.732 C 403.599 67.932, 383.875 59.014, 382.306 58.985 C 381.863 58.977, 377.675 57.444, 373 55.579 C 367.762 53.490, 364.372 51.555, 364.166 50.538 C 363.765 48.560, 359.897 46.932, 356.185 47.178 C 354.708 47.276, 343.150 47.679, 330.500 48.073 M 349.500 51 C 349.160 51.550, 349.359 52, 349.941 52 C 350.523 52, 351 51.550, 351 51 C 351 50.450, 350.802 50, 350.559 50 C 350.316 50, 349.840 50.450, 349.500 51 M 289.374 54.307 C 287.104 55.647, 277.037 63.664, 267.004 72.122 C 256.970 80.580, 245.698 89.975, 241.954 93 C 210.105 118.739, 181.475 145.427, 174.175 156.182 C 167.977 165.314, 162.809 192.204, 161.004 224.721 C 159.499 251.821, 157.730 425.912, 158.928 428.942 C 159.485 430.349, 160.610 435.100, 161.429 439.500 C 164.262 454.719, 168.499 473.061, 171.591 483.500 C 174.698 493.987, 176.793 502.476, 178.996 513.500 C 179.984 518.450, 181.473 524.525, 182.304 527 C 184.358 533.123, 191.247 559.944, 193.091 569 C 193.595 571.475, 194.667 575.525, 195.473 578 C 196.279 580.475, 197.292 583.742, 197.723 585.261 C 198.154 586.779, 198.602 573.954, 198.718 556.761 C 198.833 539.567, 199.391 520.325, 199.956 514 C 200.521 507.675, 200.987 496.586, 200.991 489.357 C 201 475.470, 201.668 473.575, 205.552 476.414 C 207.492 477.833, 207.449 478.952, 204.521 503.500 C 200.954 533.392, 200.281 576.904, 203.201 588.781 C 204.077 592.346, 203.981 593.364, 202.627 594.860 C 201.732 595.849, 201 597.649, 201 598.861 C 201 602.824, 206.931 616.560, 209.850 619.356 L 212.698 622.085 213.396 607.792 C 214.224 590.811, 216.104 577.428, 219.437 564.771 C 225.850 540.421, 235.166 516.617, 246.244 496.272 C 251.643 486.358, 251.726 486.090, 248.957 487.522 C 244.957 489.591, 239.293 489.448, 238.198 487.250 C 236.101 483.045, 232.405 460.492, 231.027 443.500 C 230.447 436.350, 229.469 427.919, 228.853 424.764 C 227.979 420.288, 228.009 418.695, 228.989 417.514 C 230.763 415.376, 236.598 415.538, 237.498 417.750 C 237.889 418.712, 238.560 432.685, 238.989 448.801 C 239.418 464.917, 239.965 478.298, 240.205 478.538 C 240.760 479.094, 257.717 461.648, 261.150 456.989 C 262.573 455.059, 264.741 449.659, 265.969 444.989 C 270.456 427.930, 272.066 421.307, 273.987 412 C 275.066 406.775, 276.876 398.450, 278.010 393.500 C 279.144 388.550, 280.758 379.350, 281.597 373.056 C 282.436 366.762, 283.292 361.336, 283.500 360.999 C 283.709 360.662, 283.966 345.337, 284.072 326.943 C 284.178 308.550, 284.486 292.457, 284.758 291.182 C 285.111 289.523, 286.851 288.152, 290.876 286.361 L 296.500 283.859 293.408 282.544 C 288.619 280.508, 278.977 267.817, 269.066 250.505 C 260.402 235.371, 257.991 229.442, 259.505 226.992 C 260.208 225.855, 280.338 216, 281.957 216 C 282.428 216, 282.584 215.124, 282.304 214.054 C 281.936 212.649, 282.310 212.102, 283.648 212.083 C 284.666 212.068, 288.261 212.045, 291.635 212.031 L 297.771 212.005 303.577 204.752 C 313.354 192.539, 329.064 173.747, 333.466 169 L 337.638 164.500 337.848 155 C 337.963 149.775, 338.576 143.700, 339.209 141.500 C 339.843 139.300, 340.424 137.275, 340.502 137 C 340.579 136.725, 340.982 133.350, 341.396 129.500 C 342.263 121.445, 347.061 98.772, 350.072 88.500 C 351.201 84.650, 352.482 79.925, 352.918 78 C 353.355 76.075, 355.143 70.319, 356.890 65.209 C 358.638 60.099, 359.839 55.549, 359.560 55.098 C 359.049 54.270, 344.529 53.465, 311.500 52.433 C 293.737 51.878, 293.446 51.902, 289.374 54.307 M 437.583 149.866 C 437.152 150.563, 437.070 151.403, 437.400 151.733 C 438.295 152.628, 439.271 151.312, 438.787 149.862 C 438.449 148.846, 438.213 148.846, 437.583 149.866 M 443.006 149.740 C 443.009 150.158, 443.486 152.209, 444.066 154.298 C 444.914 157.351, 445.487 157.980, 446.987 157.504 C 448.013 157.178, 450.516 157.607, 452.549 158.456 C 456.808 160.235, 457 160.268, 457 159.220 C 457 158.791, 453.850 156.311, 450 153.709 C 446.150 151.108, 443.003 149.321, 443.006 149.740 M 442.591 161.853 C 441.999 162.811, 450.996 167.471, 455.304 168.437 L 458.108 169.065 455.804 165.923 C 454.537 164.195, 452.458 162.380, 451.185 161.891 C 448.245 160.760, 443.280 160.738, 442.591 161.853 M 442 202 C 442 203.140, 442.667 204, 443.550 204 C 444.402 204, 446.427 204.687, 448.050 205.526 C 452.070 207.605, 451.775 205.829, 447.567 202.619 C 443.453 199.481, 442 199.319, 442 202 M 278 221.134 C 261.071 228.912, 261.342 228.579, 265.293 236.755 C 268.527 243.446, 279.687 261.643, 283.841 267 C 293.636 279.630, 296.854 281.726, 311.278 284.869 C 325.447 287.957, 324.469 288.373, 325.669 278.750 C 326.235 274.212, 326.428 270.206, 326.099 269.846 C 325.769 269.487, 320.900 268.765, 315.277 268.241 C 309.444 267.698, 304.347 266.703, 303.408 265.923 C 300.746 263.714, 302.012 253.813, 305.885 246.556 L 309.037 240.648 306.709 238.074 C 305.428 236.658, 300.864 231.563, 296.567 226.750 C 291.202 220.742, 288.088 218.023, 286.627 218.074 C 285.457 218.115, 281.575 219.492, 278 221.134 M 528.500 233 C 527.278 234.977, 512.386 245.668, 507 248.435 C 503.975 249.989, 500.635 251.861, 499.577 252.595 C 497.024 254.368, 498.243 254.790, 509 255.854 C 519.437 256.886, 524.824 255.554, 530.758 250.475 L 534.929 246.905 533.887 249.894 C 533.314 251.539, 532.205 253.415, 531.422 254.064 C 530.640 254.714, 530 255.796, 530 256.469 C 530 257.805, 533.807 262.576, 534.342 261.910 C 534.523 261.685, 535.228 255.918, 535.909 249.096 L 537.146 236.692 534.323 234.382 C 531.250 231.868, 529.462 231.443, 528.500 233 M 295.750 287.647 L 292 289.214 292 296.107 C 292 301.567, 291.688 303, 290.500 303 C 289.333 303, 289 301.667, 289 297 C 289 293.667, 288.556 291, 288 291 C 287.355 291, 287 301.696, 287 321.087 C 287 362.324, 284.050 385.592, 273.952 424 C 266.969 450.562, 266.536 453.350, 270.270 447.750 C 271.998 445.158, 277.082 439.271, 298.120 415.500 C 315.123 396.289, 332.835 370.226, 334.479 362 C 334.644 361.175, 335.099 354.650, 335.489 347.500 C 336.214 334.226, 337.449 330, 340.606 330 C 341.465 330, 342.016 329.663, 341.832 329.250 C 341.649 328.837, 339.434 324.225, 336.910 319 C 334.387 313.775, 330.567 305.178, 328.422 299.895 L 324.522 290.289 314.511 288.564 C 309.005 287.615, 303.375 286.668, 302 286.459 C 300.625 286.251, 297.813 286.785, 295.750 287.647 M 335 291.500 C 335 292.325, 335.420 293, 335.933 293 C 336.446 293, 337.153 293.907, 337.505 295.015 C 337.856 296.123, 338.542 296.783, 339.028 296.483 C 339.514 296.182, 340.668 297.090, 341.592 298.499 C 344.194 302.471, 344.512 300.581, 341.961 296.303 C 338.593 290.655, 335 288.176, 335 291.500 M 544 309.912 C 544 310.414, 542.087 311.140, 539.750 311.525 C 537.413 311.911, 535.050 312.552, 534.500 312.950 C 533.950 313.347, 530.800 314.716, 527.500 315.991 C 524.200 317.266, 519.612 319.139, 517.305 320.154 C 514.998 321.169, 512.748 322.014, 512.305 322.031 C 511.862 322.048, 509.250 323.169, 506.500 324.522 C 503.750 325.875, 500.352 326.986, 498.950 326.991 C 497.547 326.996, 495.972 327.394, 495.450 327.875 C 494.927 328.356, 491.376 329.980, 487.558 331.483 C 475.032 336.416, 471.745 339.360, 458.141 357.834 C 448.308 371.187, 439.314 388.976, 435.460 402.695 C 429.244 424.826, 427.247 434.270, 426.621 444.500 C 426.252 450.550, 425.729 456.850, 425.461 458.500 C 425.001 461.326, 425.053 461.296, 426.358 457.970 C 427.482 455.105, 435.941 435.464, 442.495 420.500 C 443.218 418.850, 445.021 414.575, 446.501 411 C 449.562 403.608, 458.109 386.234, 461.260 381 C 477.490 354.033, 486.295 345.736, 518 327.528 C 540.104 314.834, 548.606 309, 545 309 C 544.450 309, 544 309.410, 544 309.912 M 348.683 331.650 C 347.810 332.523, 352.369 336.665, 355.185 337.559 C 357.278 338.223, 357.228 338.024, 354.468 334.709 C 351.548 331.202, 349.967 330.366, 348.683 331.650 M 340.460 334.064 C 339.821 335.099, 338.240 347.905, 337.461 358.366 C 336.886 366.089, 336.339 368.020, 333.220 373.342 C 325.028 387.320, 309.139 408.161, 293.456 425.500 C 274.695 446.241, 266.811 456.482, 263.049 465 C 256.099 480.735, 255.846 480.458, 267.169 469.515 C 286.006 451.310, 305.451 431.587, 311.013 425.046 C 314.031 421.496, 318.333 416.546, 320.574 414.046 C 332.023 401.272, 342.404 386.344, 347.726 375 C 349.403 371.425, 352.851 365.686, 355.388 362.247 C 360.494 355.324, 361.235 351.200, 358.533 344.732 C 356.274 339.327, 342.304 331.081, 340.460 334.064 M 360 339.386 C 360 340.148, 360.672 342.060, 361.494 343.636 C 362.315 345.211, 363.008 348.750, 363.033 351.500 C 363.078 356.473, 363.085 356.484, 364.361 353.500 C 366.176 349.254, 365.852 346.066, 363.168 341.750 C 360.656 337.709, 360 337.220, 360 339.386 M 231.405 419.386 C 231.113 420.148, 231.330 424.311, 231.888 428.636 C 232.446 432.961, 233.202 440.550, 233.569 445.500 C 233.936 450.450, 234.642 455.175, 235.139 456 C 236.032 457.482, 235.382 424.879, 234.426 420.250 C 233.908 417.740, 232.222 417.258, 231.405 419.386 M 255.288 467.750 C 241.093 483.638, 238.678 488.403, 246.135 485.803 C 250.413 484.312, 255.618 477.007, 260.603 465.500 C 261.557 463.300, 262.512 461.163, 262.727 460.750 C 263.861 458.574, 261.505 460.791, 255.288 467.750 M 203.320 485 C 203.320 488.575, 203.502 490.038, 203.723 488.250 C 203.945 486.462, 203.945 483.538, 203.723 481.750 C 203.502 479.962, 203.320 481.425, 203.320 485 M 424.548 500.259 C 425.126 516.611, 425.331 517.653, 428.140 518.545 C 430.540 519.306, 431.980 518.159, 436.468 511.912 L 439.965 507.044 433.643 500.753 C 429.611 496.741, 426.724 492.839, 425.673 489.981 C 424.046 485.556, 424.032 485.686, 424.548 500.259 M 508.540 569.250 C 508.876 572.138, 509.544 575.400, 510.025 576.500 C 513.717 584.938, 519 598.060, 519 598.794 C 519 599.287, 519.965 600.547, 521.145 601.595 C 523.281 603.491, 523.288 603.488, 522.705 601 C 521.679 596.618, 515.608 579.520, 514.894 579 C 514.516 578.725, 513.689 576.475, 513.057 574 C 510.306 563.239, 507.500 560.288, 508.540 569.250 M 1.762 684.707 C 3.006 684.946, 4.806 684.937, 5.762 684.687 C 6.718 684.437, 5.700 684.241, 3.500 684.252 C 1.300 684.263, 0.518 684.468, 1.762 684.707 M 12.750 684.737 C 15.638 684.939, 20.363 684.939, 23.250 684.737 C 26.138 684.535, 23.775 684.370, 18 684.370 C 12.225 684.370, 9.863 684.535, 12.750 684.737" stroke="none" fill="black" fill-rule="evenodd"/>
</svg>