<?xml version="1.0" encoding="UTF-8" standalone="no"?>
<!-- Created with Inkscape (http://www.inkscape.org/) -->

<svg
   version="1.1"
   id="svg1"
   width="249"
   height="202"
   viewBox="0 0 249 202"
   sodipodi:docname="cupStroke.svg"
   inkscape:version="1.3 (0e150ed6c4, 2023-07-21)"
   xmlns:inkscape="http://www.inkscape.org/namespaces/inkscape"
   xmlns:sodipodi="http://sodipodi.sourceforge.net/DTD/sodipodi-0.dtd"
   xmlns="http://www.w3.org/2000/svg"
   xmlns:svg="http://www.w3.org/2000/svg">
  <defs
     id="defs1" />
  <sodipodi:namedview
     id="namedview1"
     pagecolor="#ffffff"
     bordercolor="#000000"
     borderopacity="0.25"
     inkscape:showpageshadow="2"
     inkscape:pageopacity="0.0"
     inkscape:pagecheckerboard="0"
     inkscape:deskcolor="#d1d1d1"
     inkscape:zoom="4.0781158"
     inkscape:cx="112.06155"
     inkscape:cy="105.31824"
     inkscape:window-width="2560"
     inkscape:window-height="1377"
     inkscape:window-x="1192"
     inkscape:window-y="205"
     inkscape:window-maximized="1"
     inkscape:current-layer="g1" />
  <g
     inkscape:groupmode="layer"
     inkscape:label="Image"
     id="g1">
    <path
       style="stroke:#050505;fill:none"
       d="M 34,40 C 34.010242,36.287155 32.262009,31.950348 36.854168,25.104172 41.814514,17.709091 55.754593,14.742401 64,12.629623 90.172447,5.9232788 116.27929,6.8675842 143,8.0393524 c 14.37323,0.6302948 29.69418,4.1181186 43,9.8333286 9.06046,3.891708 15.57782,10.520355 14.39583,19.07254 -0.91887,6.648437 -6.99631,5.138733 -11.39583,6.918976 -8.32127,3.367157 -19.57251,6.654495 -29,8.216049 -24.09467,3.990997 -47.78298,4.588394 -72,1.869598 C 77.992386,52.826309 67.718246,51.429901 58,48.706024 53.59536,47.471466 45.361507,43.866638 42,42.748444 38.159187,41.47081 36.452843,41.055588 34,40 c -0.837345,1.984406 -1.758026,3.808426 -1.959877,8 -0.173002,3.592529 0.307652,10.845581 0.804783,15 1.515961,12.668556 3.18729,24.282227 8.016205,36 2.642624,6.41255 6.177131,12.72044 8.940586,19 1.766571,4.01428 1.172912,6.54754 3.761577,9.77623 2.71959,3.39198 5.863583,4.46611 9.52623,8.24229 7.208569,7.43198 16.132237,14.5643 25.910496,18.52854 12.31954,4.99452 24.72153,6.33687 38,5.36267 6.36349,-0.46689 13.28177,-2.8918 19,-5.33875 9.41234,-4.02771 19.8217,-12.26039 26.57562,-19.52777 3.28609,-3.5359 5.0352,-3.49954 7.91126,-6.53781 2.85339,-3.01434 1.79059,-4.47731 3.95524,-8.49074 2.23012,-4.13479 4.19948,-3.89576 6.54554,-8.10417 1.56387,-2.80533 1.4569,-5.12777 1.7662,-6.91049 0.37508,-2.16188 1.53691,-6.998222 2.38657,-10 2.39859,-8.474129 5.13351,-23.436218 6.14506,-32 0.39173,-3.31636 0.7144,-9.945358 3.86266,-11.411255 3.00624,-1.39978 4.12086,-0.938476 7.85185,-1.458343 5.32501,-0.74199 13.87134,-1.582215 18.99924,1.611877 C 243.09172,58.651611 242.95612,75.141975 238.51852,86 234.0078,97.03698 223.64482,105.55851 213,110.12732 c -4.05658,1.7411 -9.98416,3.53023 -13.99846,3.77931 C 194.61874,114.17857 193.50958,113.44604 192,113 m 9,-72 1,10 m 40,20 h 6 M 53,128 c -1.842548,1.47586 -3.749268,3.12204 -8,4.35571 -2.769539,0.80381 -6.169449,1.77082 -9,2.83719 -7.252928,2.73245 -14.749733,5.53623 -20.984568,10.48766 -3.17285,2.51973 -6.0378319,8.49638 -7.513889,11.17129 C 4.6193647,162.07492 2.1506839,159.91222 1,160 m 181,-31 c 1.53908,1.02859 2.74727,2.13486 7.00154,3.35725 4.25289,1.222 9.71896,2.87862 13.99846,4.65432 10.34888,4.29406 26.19151,12.38252 23.13734,25.98843 -1.9978,8.89993 -10.48599,13.03735 -18.13734,16.74152 -16.41867,7.94856 -36.5735,12.87632 -55,14.16897 -5.82571,0.40869 -24.81485,0.16527 -28.99846,1.69136 -5.34202,1.94866 -5.71969,4.15789 -7.00154,5.39815 -1.28185,-1.24025 -1.65953,-3.44951 -7.00154,-5.39815 C 108.05881,194.8943 103.44627,195.00015 101,195 93.382278,194.99951 85.552017,194.57935 78,193.57562 54.081711,190.39667 15.833317,185.8244 7,160 m -7,0 h 1"
       id="path1" />
  </g>
</svg>
