<svg xmlns="http://www.w3.org/2000/svg" width="249" height="202" viewBox="0 0 249 202"><rect width="100%" height="100%" fill="#fff"/><path fill-rule="evenodd" d="M97.425 1.014c-31.95 2.176-57.038 9.947-66.348 20.551-4.025 4.584-4.541 7.913-4.56 29.435-.013 14.203.407 20.469 1.809 26.976 2.871 13.323 7.212 25.795 12.692 36.461 2.777 5.406 4.922 9.908 4.766 10.005-.156.098-4.109 1.435-8.784 2.973C12.916 135.337.533 146.062.533 159c0 10.036 7.252 18.537 22.088 25.893 42.322 20.984 135.091 22.306 183.55 2.616 12.443-5.056 22.257-12.508 25.913-19.674 2.519-4.938 2.504-12.762-.034-17.737-4.369-8.565-18.317-17.602-35.74-23.16-6.257-1.995-7.068-2.522-6.248-4.055.611-1.14 2.618-1.968 5.691-2.348 10.302-1.272 16.081-2.865 23.824-6.565 14.424-6.893 26.094-22.029 28.5-36.964 1.122-6.97.501-14.563-1.612-19.696-2.185-5.31-9.1-11.998-14.202-13.736-5.103-1.739-16.752-2.099-20.598-.637-2.958 1.125-3.63-.479-3.651-8.719-.025-9.673-4.261-15.285-16.011-21.216-18.299-9.238-59.08-14.407-94.578-11.988M95 13.052c-21.118 1.854-43.343 7.496-50.995 12.944-3.417 2.433-3.941 5.871-1.255 8.233 5.317 4.673 20.786 9.686 38.485 12.469 16.048 2.524 56.612 2.49 72.705-.06 18.408-2.917 35.242-8.538 38.95-13.005 2.773-3.342.944-5.966-6.89-9.884-8.785-4.393-18.697-7.069-34.266-9.248-13.89-1.945-42.709-2.681-56.734-1.449M39.006 53.25c.003 3.438.655 10.525 1.449 15.75 6.027 39.69 26.784 69.495 56.303 80.847 6.14 2.361 8.037 2.593 21.242 2.593s15.102-.232 21.242-2.593c10.304-3.963 17.389-8.614 25.754-16.908 16.992-16.847 27.581-41.568 30.066-70.194.568-6.531.766-12.712.441-13.736-.561-1.767-.878-1.733-6.297.676C172.979 56.896 149.529 60.4 117.5 60.4c-32.15 0-55.47-3.501-71.874-10.79-3.231-1.435-6.044-2.61-6.25-2.61-.207 0-.373 2.813-.37 6.25m173.744 2.953c-2.4.637-3.757 1.59-3.77 2.646-.112 9.511-5.024 33.113-8.978 43.145-1.085 2.753-1.642 5.001-1.237 4.994.404-.006 2.985-.614 5.735-1.349 12.552-3.358 22.691-11.55 27.794-22.454 5.295-11.316 3.552-23.656-3.816-27.013-3.037-1.384-10.457-1.369-15.728.031M52.5 136.679c-1.1.246-5.6 1.607-10 3.025-19.815 6.382-31.12 14.904-28.593 21.552 4.13 10.863 33.231 21.377 69.956 25.275 15.893 1.687 46.868 1.909 62.637.449 40.798-3.778 74.5-16.343 74.5-27.777 0-5.987-10.044-13.044-27.054-19.009-12.901-4.524-12.545-4.571-19.963 2.665-16.243 15.844-34.392 23.444-55.983 23.444-21.893 0-40.285-7.75-56.962-24.005-3.554-3.464-6.479-6.246-6.5-6.182-.021.064-.938.317-2.038.563"/></svg>