<?xml version="1.0" standalone="no"?>
<!DOCTYPE svg PUBLIC "-//W3C//DTD SVG 20010904//EN"
 "http://www.w3.org/TR/2001/REC-SVG-20010904/DTD/svg10.dtd">
<svg version="1.0" xmlns="http://www.w3.org/2000/svg"
 width="512.000000pt" height="512.000000pt" viewBox="0 0 512.000000 512.000000"
 preserveAspectRatio="xMidYMid meet">

<g transform="translate(0.000000,512.000000) scale(0.100000,-0.100000)"
fill="#000000" stroke="none">
<path d="M3310 4800 c-14 -4 -54 -16 -90 -26 -36 -9 -68 -20 -72 -23 -3 -3 4
-130 16 -281 13 -151 21 -278 19 -282 -2 -5 -26 -8 -53 -8 -48 0 -49 -1 -76
-50 -15 -27 -31 -50 -36 -50 -5 0 -39 28 -76 63 -148 139 -351 215 -481 181
-31 -8 -102 -14 -161 -14 -160 0 -262 -27 -333 -86 -23 -20 -40 -24 -91 -24
-83 0 -150 -21 -211 -67 -70 -53 -106 -75 -112 -70 -2 3 -7 24 -10 47 -5 37
-8 41 -32 38 -24 -3 -31 6 -89 120 l-63 123 -57 -5 c-31 -2 -88 -17 -127 -33
l-70 -28 -3 -82 c-3 -79 -4 -83 -34 -104 -40 -29 -71 -99 -102 -229 -22 -97
-25 -130 -29 -445 -6 -346 -4 -391 32 -830 21 -256 29 -344 38 -380 2 -11 7
-117 10 -236 6 -233 0 -308 -44 -488 -14 -57 -26 -113 -28 -123 -2 -10 -6 -22
-9 -26 -6 -9 -162 -631 -171 -677 -3 -16 -10 -87 -17 -157 -12 -131 -2 -288
20 -310 6 -6 49 -14 96 -19 47 -5 112 -17 143 -28 32 -11 62 -16 68 -11 5 4
34 4 64 -1 30 -4 132 -9 225 -11 182 -2 216 5 249 52 13 18 14 18 25 -14 22
-60 44 -67 200 -64 134 3 137 3 140 26 2 13 24 38 53 60 69 51 100 106 143
252 21 69 62 195 91 280 73 210 71 198 44 226 -12 13 -17 24 -10 24 6 0 15 8
18 18 4 9 31 57 60 107 29 49 53 96 53 105 1 11 7 8 23 -10 21 -24 28 -29 45
-31 4 0 -2 -4 -13 -9 -19 -8 -19 -9 1 -9 12 -1 25 -8 28 -17 9 -24 8 -26 -16
-13 -22 12 -22 12 -5 -15 10 -15 31 -40 48 -55 20 -20 26 -31 17 -34 -9 -4 -5
-12 13 -29 15 -12 29 -31 33 -42 6 -17 8 -18 24 -2 10 9 23 16 29 16 6 0 19
20 29 45 13 29 27 46 41 50 26 6 38 42 30 84 -6 29 -6 29 33 24 38 -5 40 -4
40 20 0 43 10 57 41 57 27 0 29 3 29 39 0 38 0 38 38 37 37 -1 37 -1 35 37 -3
32 0 37 20 37 48 0 69 12 64 36 -3 19 2 24 40 33 42 11 44 13 41 44 -3 31 -2
32 32 29 19 -2 60 -9 90 -16 l55 -13 -45 -27 c-49 -31 -150 -125 -150 -140 0
-5 20 11 44 36 70 74 143 118 194 118 26 0 41 -4 37 -10 -3 -5 -17 -10 -29
-10 -43 0 -206 -128 -326 -255 -47 -49 -132 -139 -190 -199 -58 -60 -91 -99
-73 -87 18 12 110 103 205 201 95 99 193 193 218 209 25 16 56 41 69 55 24 26
41 33 41 18 0 -4 -13 -16 -30 -25 -24 -15 -30 -25 -30 -53 0 -27 -4 -34 -19
-34 -11 0 -28 -3 -38 -7 -16 -6 -17 -5 -3 12 8 10 10 16 4 12 -6 -4 -57 -80
-112 -169 -99 -159 -106 -168 -289 -349 -308 -304 -384 -372 -452 -407 -34
-18 -65 -32 -67 -32 -18 0 70 219 175 433 48 97 82 177 76 177 -10 0 -115
-195 -115 -213 0 -3 -18 -44 -40 -92 -81 -172 -97 -223 -120 -389 -15 -102
-11 -106 82 -76 56 19 91 24 151 22 42 -2 77 1 77 6 0 27 -138 20 -242 -12
-26 -8 -49 -12 -52 -8 -2 4 1 37 6 74 l10 66 54 22 c71 29 177 123 431 379
111 113 205 203 207 200 3 -3 -3 -21 -14 -40 -39 -67 -70 -140 -87 -206 -15
-63 -15 -71 1 -137 10 -39 32 -112 48 -163 26 -79 34 -93 59 -103 21 -9 29
-19 29 -36 0 -19 5 -24 25 -24 19 0 26 -7 32 -31 8 -28 16 -33 83 -55 41 -13
81 -22 89 -19 18 7 9 51 -25 124 -43 95 -64 116 -146 140 -123 38 -121 37
-115 78 5 26 0 46 -16 74 -19 34 -20 41 -9 60 9 13 10 24 4 28 -5 3 -12 27
-16 54 -6 40 -5 48 11 53 59 19 61 22 55 89 l-5 64 42 11 42 11 -3 52 c-3 50
-2 52 29 62 43 14 44 16 33 54 -13 46 -4 60 47 73 39 9 44 13 38 32 -19 58
-17 73 7 79 12 4 33 7 45 7 19 0 21 4 16 39 -5 38 -4 40 31 55 27 11 35 20 33
36 -1 17 7 26 42 39 24 10 50 26 57 36 11 15 23 17 76 12 207 -21 320 -205
354 -571 12 -129 13 -187 4 -291 -17 -202 -85 -443 -129 -460 -9 -4 -65 -8
-126 -11 -69 -2 -111 -8 -114 -15 -6 -18 230 -7 260 12 43 28 70 29 303 13
126 -8 239 -13 251 -10 28 7 75 95 109 205 33 103 45 229 42 426 -3 125 -7
166 -29 245 -21 79 -105 295 -162 415 -7 17 -16 68 -19 115 -5 77 -16 173 -45
420 -6 47 -18 154 -26 239 -9 85 -18 158 -21 162 -2 5 -9 73 -15 151 -15 211
-57 401 -150 678 -44 130 -53 172 -59 259 -4 57 -12 106 -18 110 -10 6 -51
126 -57 166 -8 60 -181 408 -229 464 -17 18 -47 44 -67 56 -28 18 -38 32 -42
62 -6 36 -105 358 -128 416 -12 29 -38 34 -89 17z m19 -212 c7 -101 16 -235
21 -298 5 -63 14 -218 20 -345 10 -218 22 -343 36 -379 9 -23 -22 -20 -46 4
-11 11 -23 34 -27 50 -3 17 -9 30 -13 30 -16 0 -21 40 -45 344 -14 171 -32
390 -40 486 -21 246 -20 269 8 280 12 5 34 9 48 9 l26 1 12 -182z m91 -210 c0
-16 -4 -28 -10 -28 -5 0 -10 10 -10 23 0 12 -2 47 -5 77 l-5 55 15 -50 c8 -27
15 -62 15 -77z m-2160 -195 c1 -93 4 -240 7 -328 10 -245 10 -245 -17 -287
-14 -21 -28 -38 -31 -38 -14 0 -30 167 -44 450 -8 162 -15 305 -15 318 0 16 9
27 33 37 69 30 67 34 67 -152z m2210 139 c0 -5 -15 -27 -32 -51 -29 -37 -33
-40 -36 -21 -2 12 2 28 8 36 9 10 9 14 1 14 -6 0 -11 7 -11 15 0 10 11 15 35
15 19 0 35 -4 35 -8z m-815 -34 c67 -26 151 -69 200 -102 65 -44 155 -136 155
-158 0 -37 79 -182 155 -283 41 -55 74 -107 75 -115 0 -8 16 -42 36 -74 54
-90 81 -184 87 -306 3 -58 3 -94 1 -80 -7 37 -34 159 -47 210 -24 97 -110 242
-164 277 -14 10 -63 25 -107 33 -74 15 -83 19 -103 50 -44 68 -128 180 -135
180 -15 0 -8 -12 41 -74 26 -33 52 -72 56 -84 6 -22 5 -23 -17 -11 -12 6 -45
32 -71 57 -48 44 -50 44 -100 38 -29 -4 -90 -14 -137 -24 -79 -16 -85 -20 -88
-44 -4 -31 72 -180 148 -291 29 -43 50 -80 48 -83 -3 -2 -36 0 -74 6 -38 5
-105 10 -149 10 l-81 0 -62 106 c-90 152 -112 224 -112 365 0 82 -3 110 -11
102 -8 -8 -10 -108 -7 -332 1 -177 0 -322 -4 -322 -5 -1 -14 -2 -20 -3 -39 -4
32 -227 112 -356 36 -58 46 -90 27 -90 -25 0 -158 49 -195 72 -99 61 -272 224
-272 257 0 6 -7 11 -15 11 -11 0 -13 -8 -8 -30 10 -52 -15 -34 -31 23 -8 28
-20 70 -26 92 -33 122 -30 422 6 555 37 135 68 215 92 237 l25 23 -32 0 c-17
0 -31 -2 -31 -5 0 -2 -18 -60 -39 -127 -38 -119 -44 -152 -76 -393 -8 -60 -19
-126 -25 -145 -37 -124 -60 -224 -60 -263 0 -42 -21 -79 -37 -64 -12 12 17
276 47 425 16 84 30 167 30 183 0 54 -17 21 -29 -58 -7 -43 -19 -116 -28 -163
-20 -117 -43 -305 -43 -358 0 -24 -4 -41 -9 -38 -5 3 -12 -4 -16 -17 -6 -20
-8 -19 -16 13 -5 19 -13 87 -19 150 -12 149 -28 204 -59 208 -39 6 -79 -18
-142 -85 l-61 -65 29 53 c35 67 39 80 18 54 -53 -64 -207 -439 -189 -458 3 -3
1 -49 -5 -104 -21 -203 -34 -498 -24 -552 15 -78 30 -59 36 46 6 108 52 276
111 405 l33 72 6 -69 c10 -108 52 -263 100 -372 25 -54 52 -115 61 -136 19
-46 39 -42 26 5 -5 17 -12 52 -15 77 -3 25 -14 79 -24 119 -20 77 -15 100 7
30 7 -24 26 -60 43 -80 16 -20 29 -40 29 -44 0 -3 21 -34 46 -68 26 -33 60
-85 77 -114 19 -34 33 -49 37 -42 5 9 9 9 14 1 4 -6 2 -11 -3 -11 -18 0 -12
-20 13 -43 35 -33 67 -103 77 -171 16 -110 49 -498 49 -581 0 -136 -57 -316
-142 -447 -23 -35 -135 -159 -252 -278 -134 -136 -231 -244 -264 -293 -140
-210 21 161 233 538 132 233 202 401 219 525 33 234 39 523 13 640 -17 75 -79
212 -117 260 -18 23 -20 23 -20 5 0 -11 11 -78 25 -150 19 -97 25 -161 25
-260 0 -182 -11 -239 -69 -374 -78 -181 -235 -587 -264 -681 -81 -264 -133
-515 -122 -581 6 -32 4 -38 -8 -33 -8 3 -37 8 -63 12 l-48 7 3 65 c1 36 11
121 21 190 87 567 94 654 93 1115 0 226 -5 462 -11 525 -19 197 -61 630 -71
730 -30 278 -24 458 19 572 16 42 120 218 143 243 7 7 8 7 4 0 -10 -19 12
-168 32 -208 19 -39 19 -41 2 -76 -73 -142 -150 -512 -112 -535 9 -6 18 51 26
155 12 166 124 455 282 726 29 50 53 96 53 102 0 7 19 33 43 59 23 26 59 68
80 93 37 47 144 132 204 163 22 11 58 16 116 16 79 0 87 2 123 31 85 68 169
90 354 95 63 1 126 7 140 13 32 13 111 4 175 -21z m894 2 c20 -12 53 -44 75
-73 55 -74 182 -341 227 -477 l38 -115 3 -295 c4 -390 -2 -785 -13 -840 -10
-54 -26 -447 -35 -873 -3 -169 -8 -306 -10 -305 -6 6 -61 325 -88 508 -29 193
-34 225 -71 448 -45 273 -100 476 -168 625 -28 62 -45 86 -56 85 -11 -2 -15 3
-14 17 19 154 33 333 33 427 0 81 4 118 12 120 8 3 5 20 -10 59 -23 56 -32
138 -48 460 l-7 126 42 61 c23 34 44 62 48 62 3 0 22 -9 42 -20z m-2194 -95
c16 -36 26 -66 24 -68 -2 -1 -19 -15 -37 -31 l-32 -30 0 97 c0 53 4 97 9 97 5
0 21 -29 36 -65z m1853 -192 c7 -87 15 -192 18 -233 l6 -75 -29 35 c-34 41
-86 125 -125 199 -32 62 -37 125 -12 174 27 52 34 57 83 57 l47 0 12 -157z
m-2098 90 c0 -21 5 -114 10 -207 l10 -169 -64 -101 c-68 -110 -94 -157 -107
-196 -5 -14 -7 64 -4 180 3 197 5 210 38 325 34 123 48 157 75 188 25 29 42
21 42 -20z m360 18 c0 -6 -5 -13 -10 -16 -15 -9 -55 -73 -112 -180 l-49 -90 3
85 c4 110 26 156 88 188 46 23 80 29 80 13z m56 -47 c11 -35 10 -38 -37 -97
-54 -70 -149 -219 -149 -236 0 -6 -4 -11 -9 -11 -4 0 -8 24 -7 53 1 42 10 67
45 127 47 80 131 200 140 200 4 0 11 -16 17 -36z m1276 -263 l33 -30 -59 20
c-33 10 -67 19 -78 19 -10 0 -18 5 -18 10 0 6 20 10 45 10 35 0 51 -6 77 -29z
m-41 -20 c30 -10 83 -32 119 -48 l65 -30 42 -104 c51 -127 87 -253 110 -379
19 -108 23 -418 7 -485 -9 -37 -11 -31 -17 66 -6 103 -37 219 -58 219 -5 0
-10 -36 -10 -80 -1 -44 -2 -83 -3 -87 -1 -5 -6 -37 -10 -72 -8 -65 -26 -68
-26 -5 0 17 -6 47 -14 66 -8 18 -24 72 -36 118 -22 86 -91 235 -156 337 -19
30 -32 58 -29 64 4 5 1 9 -5 9 -6 0 -14 8 -17 17 -4 10 -33 56 -64 104 -63 95
-149 252 -149 272 0 37 162 49 251 18z m319 -112 c36 -8 61 -21 84 -45 43 -44
109 -182 140 -291 26 -92 50 -239 41 -253 -3 -5 -1 -11 5 -15 5 -3 10 -20 10
-38 0 -29 -1 -30 -14 -11 -8 10 -10 21 -5 22 5 2 9 8 9 13 0 6 -4 7 -10 4 -5
-3 -30 13 -54 36 l-45 41 -44 -21 c-24 -12 -46 -21 -49 -21 -3 0 -8 35 -11 78
-9 110 -47 248 -105 390 -58 139 -60 134 48 111z m-737 -249 c-16 -14 -116
-50 -122 -44 -3 3 -7 71 -9 152 l-3 147 70 -124 c39 -69 68 -128 64 -131z
m1103 -37 c-11 -260 -33 -437 -60 -508 l-16 -40 6 35 c3 19 8 118 10 220 4
191 -7 304 -40 398 l-15 42 61 0 61 0 -7 -147z m-1723 31 c6 -66 29 -171 46
-216 10 -27 9 -28 -22 -28 -17 0 -50 -5 -72 -10 -22 -5 -40 -8 -42 -7 -4 4 35
191 52 247 30 102 30 102 38 14z m-265 4 c6 -24 13 -72 17 -108 3 -36 11 -107
17 -158 10 -87 9 -94 -9 -115 -31 -34 -73 -135 -73 -176 0 -20 13 -70 29 -111
39 -101 45 -135 36 -236 -6 -75 -9 -83 -21 -67 -7 10 -21 41 -30 68 -9 28 -22
57 -29 65 -7 8 -21 41 -30 73 -9 31 -20 55 -24 52 -13 -7 23 -240 45 -292 21
-53 7 -38 -25 25 -56 112 -91 269 -92 419 0 100 -12 142 -24 86 -10 -46 -55
-173 -87 -247 -17 -38 -41 -110 -53 -160 -13 -50 -24 -86 -24 -80 -2 32 30
428 40 484 16 97 56 226 94 305 54 111 155 215 211 215 17 0 24 -9 32 -42z
m1144 -28 c81 -12 110 -24 124 -53 6 -12 35 -66 64 -121 49 -91 51 -98 29 -91
-54 17 -155 80 -237 149 -24 20 -48 34 -52 31 -5 -3 -37 14 -71 37 -35 23 -58
43 -51 46 7 2 36 -15 63 -38 28 -23 52 -40 55 -37 3 2 -13 20 -36 39 -22 19
-40 38 -40 41 0 10 74 8 152 -3z m-167 -56 c39 -31 82 -62 96 -69 14 -8 66
-41 115 -73 89 -59 174 -102 201 -102 13 0 38 -48 29 -57 -2 -3 -19 3 -37 13
-28 14 -54 16 -174 12 -154 -6 -192 -16 -238 -66 -31 -33 -34 -75 -5 -80 9 -2
40 18 70 43 112 97 90 89 214 81 62 -3 127 -13 147 -21 34 -14 38 -20 68 -117
36 -116 34 -111 44 -194 7 -57 -3 -116 -31 -189 -10 -24 15 -17 26 8 15 38 49
157 73 262 l24 100 6 -45 c11 -72 10 -164 -1 -201 -18 -60 -23 -89 -14 -89 5
0 17 21 27 46 22 59 32 49 11 -12 -9 -26 -16 -59 -16 -73 0 -17 -18 -47 -50
-84 -27 -32 -55 -76 -62 -99 -9 -32 -50 -79 -206 -234 -107 -107 -201 -194
-208 -194 -8 0 -40 9 -71 19 -32 11 -87 25 -123 31 -115 19 -363 82 -415 105
-85 37 -113 69 -176 201 -32 67 -101 184 -152 260 l-92 139 17 85 c10 48 18
140 20 213 1 92 6 131 15 139 11 8 12 7 7 -5 -10 -26 26 -207 54 -270 14 -31
26 -56 28 -55 1 2 -4 51 -11 108 -8 58 -15 139 -15 181 l0 77 44 11 c25 6 58
11 75 11 28 0 31 -4 57 -82 40 -124 80 -208 98 -208 21 0 20 4 -8 53 -23 39
-86 200 -86 219 0 25 53 -1 128 -65 141 -119 175 -138 321 -188 89 -31 121
-35 121 -19 0 6 -3 10 -8 10 -4 0 -12 8 -17 19 -6 10 -20 37 -32 59 -12 22
-32 91 -43 154 -12 62 -28 142 -36 177 -8 35 -13 65 -12 67 11 10 96 44 113
44 11 0 52 -25 90 -56z m-197 -156 c10 -53 15 -95 11 -92 -10 6 -69 189 -69
213 0 30 24 31 32 2 4 -14 16 -70 26 -123z m1769 -46 c98 -328 130 -542 119
-782 -7 -148 -22 -315 -36 -400 -24 -149 -178 -941 -187 -960 -12 -30 -34 128
-40 297 -6 178 12 862 28 1063 5 63 14 196 19 295 6 99 15 187 20 196 5 9 10
118 11 243 1 124 5 226 8 226 3 0 30 -80 58 -178z m-2397 -59 c0 -21 2 -69 5
-108 3 -54 3 -61 -4 -30 -16 74 -22 175 -11 175 5 0 10 -17 10 -37z m1671 -10
c77 -81 81 -101 50 -226 -26 -98 -78 -212 -121 -261 -19 -21 -54 -47 -78 -57
-54 -24 -53 -24 -43 4 5 12 38 110 72 217 49 155 63 212 67 278 2 45 8 82 11
82 4 0 23 -17 42 -37z m-71 -46 c0 -42 -10 -98 -30 -162 -29 -99 -70 -208 -75
-203 -2 2 3 28 12 58 8 30 18 122 22 205 6 148 6 149 31 156 14 4 28 7 33 8 4
1 7 -28 7 -62z m-1683 -114 c-7 -210 -23 -236 -25 -42 -1 159 2 189 20 189 8
0 9 -46 5 -147z m957 72 c-64 -59 -81 -68 -63 -32 21 42 72 87 98 87 22 0 18
-6 -35 -55z m-1001 -204 l-9 -56 -18 40 c-30 67 -31 117 -5 187 l24 63 8 -89
c5 -51 5 -113 0 -145z m2007 120 c42 -85 98 -274 124 -421 2 -14 11 -59 19
-100 15 -74 22 -118 72 -445 29 -194 83 -528 91 -565 3 -15 -12 2 -37 41 -25
39 -59 78 -82 92 -21 14 -50 45 -63 69 -88 154 -179 395 -224 593 -12 55 -27
118 -34 140 -13 48 -12 196 4 303 20 143 78 352 96 352 2 0 17 -27 34 -59z
m-128 -103 c-7 -64 -54 -190 -85 -230 -18 -23 -54 -55 -82 -71 -27 -16 -61
-40 -76 -53 -44 -42 -62 -29 -35 25 10 18 28 31 54 39 72 22 130 104 210 295
15 36 19 34 14 -5z m-33 -282 c-15 -145 14 -329 87 -564 34 -111 128 -355 145
-377 10 -14 -210 -17 -286 -4 -70 13 -79 17 -67 32 5 7 12 27 15 44 5 26 2 35
-13 43 -20 10 -56 113 -81 230 -7 30 -17 61 -22 68 -11 14 -73 16 -82 2 -11
-17 -23 -11 -18 9 3 11 0 66 -7 123 -6 57 -14 129 -17 161 l-6 58 39 -22 c57
-33 73 -48 113 -109 26 -41 36 -50 39 -37 10 51 -35 115 -105 151 l-45 22 39
16 c21 9 61 19 88 22 52 5 105 23 105 36 0 4 -9 10 -20 13 -11 3 -20 0 -20 -6
0 -6 -3 -7 -7 -4 -3 4 -11 3 -17 -2 -6 -4 -27 -11 -46 -15 l-34 -6 28 29 c16
16 42 35 60 42 38 15 102 74 123 112 8 16 16 27 18 25 2 -1 -1 -43 -6 -92z
m-1805 11 c-2 -43 -21 -104 -30 -95 -3 3 -2 40 2 82 5 57 10 74 18 66 6 -6 10
-30 10 -53z m106 -187 c30 -96 39 -150 20 -120 -5 8 -10 25 -10 38 0 12 -4 22
-9 22 -5 0 -7 -10 -4 -22 4 -20 2 -18 -16 7 -11 17 -21 37 -21 45 0 13 -2 13
-9 1 -7 -10 -1 -27 18 -55 26 -39 44 -76 37 -76 -6 0 -80 125 -81 135 0 6 -13
27 -28 47 l-29 37 17 48 c10 26 19 55 22 62 8 28 63 -72 93 -169z m0 115 c24
-29 24 -29 2 -10 -13 11 -28 29 -34 40 -11 21 -8 18 32 -30z m1430 -23 c0 -4
-9 -13 -20 -20 -22 -13 -27 -3 -8 16 14 14 28 16 28 4z m20 -30 c0 -7 -63 -42
-75 -42 -15 0 -1 22 23 34 30 17 52 20 52 8z m-1368 -119 c75 -141 115 -188
200 -229 58 -29 265 -89 334 -98 16 -1 64 -11 106 -21 l77 -18 11 -49 c5 -27
10 -68 10 -92 0 -43 -1 -44 -57 -71 -32 -15 -75 -34 -95 -42 -34 -14 -37 -17
-31 -46 3 -18 6 -34 5 -37 0 -24 -5 -30 -27 -30 -23 0 -25 -4 -25 -46 0 -37
-3 -45 -15 -40 -23 9 -31 -23 -10 -38 24 -17 13 -50 -14 -41 -24 7 -34 -25
-12 -41 20 -16 6 -47 -18 -39 -10 3 -24 -1 -31 -10 -7 -8 -18 -15 -24 -15 -6
0 -38 -13 -71 -28 -68 -33 -127 -93 -155 -156 -23 -54 -73 -233 -99 -354 -15
-67 -28 -104 -49 -130 -53 -68 -76 -132 -91 -252 -10 -74 -39 -127 -82 -151
-23 -12 -303 -14 -401 -3 l-57 6 23 47 c43 84 137 194 322 376 113 112 200
206 228 250 48 72 116 233 137 320 14 61 14 283 0 385 -6 41 -15 134 -22 205
-14 168 -22 210 -58 299 -16 40 -33 95 -37 122 -4 27 -15 75 -25 108 -36 113
-25 104 53 -41z m1261 -235 c5 -78 4 -88 -11 -88 -9 0 -51 -21 -92 -45 -41
-25 -79 -45 -85 -45 -6 0 -29 -15 -51 -33 -21 -18 -74 -59 -117 -90 -43 -32
-96 -74 -118 -94 -22 -20 -43 -33 -47 -29 -4 5 5 18 21 30 27 22 36 46 17 46
-5 0 -10 21 -11 48 0 26 -4 71 -8 100 -7 46 -5 52 8 46 9 -3 33 -8 54 -11 35
-5 41 -3 70 33 18 21 104 110 192 197 l160 159 6 -69 c4 -37 9 -107 12 -155z
m1211 -43 c14 -104 30 -237 36 -295 6 -58 17 -159 26 -225 30 -241 -28 -488
-171 -726 -45 -75 -143 -205 -175 -234 l-22 -20 5 30 c10 52 26 173 47 370 12
105 32 244 46 310 39 193 70 350 98 505 15 80 29 155 32 168 12 60 34 253 35
311 1 58 2 62 9 31 5 -19 20 -120 34 -225z m-2606 -8 c17 -94 11 -142 -28
-230 -17 -38 -18 -38 -23 170 -4 114 -9 224 -12 243 -11 75 47 -97 63 -183z
m1514 -36 c-3 -15 34 -162 55 -218 8 -23 24 -50 34 -59 27 -24 25 -29 -26 -58
-25 -15 -45 -31 -45 -36 0 -5 -8 -16 -17 -26 -13 -13 -14 -19 -5 -22 25 -8 11
-22 -22 -22 -38 0 -60 -19 -50 -44 5 -13 -1 -16 -30 -16 -29 0 -39 -5 -48 -25
-9 -19 -9 -28 0 -37 19 -19 14 -24 -22 -20 -18 2 -43 -1 -55 -7 -20 -11 -21
-9 -21 29 0 45 -4 47 -75 28 l-46 -12 3 -61 3 -60 43 -3 c40 -3 43 -5 40 -30
-3 -24 -7 -27 -35 -24 -46 5 -51 -1 -43 -50 l6 -43 -47 -2 c-27 -1 -51 3 -57
10 -16 21 -32 79 -63 232 -17 83 -35 154 -40 160 -6 5 -9 5 -9 -1 0 -8 24
-139 44 -239 4 -16 -5 2 -20 40 -14 39 -27 78 -29 88 -5 22 -90 120 -150 172
l-46 39 58 28 c32 15 66 27 75 27 16 1 15 -2 -3 -34 -12 -19 -18 -35 -15 -35
3 0 1 -11 -4 -25 -13 -35 0 -31 63 18 31 23 102 78 159 121 57 44 135 96 173
116 39 20 88 46 110 58 59 31 139 62 150 58 6 -2 9 -9 7 -15z m-1508 -365
c-26 -281 -57 -370 -260 -748 -87 -161 -175 -330 -197 -376 -22 -45 -41 -81
-43 -79 -5 5 48 215 87 340 56 184 96 300 158 452 34 83 73 179 88 215 49 123
110 265 139 326 27 56 29 59 35 34 3 -14 0 -88 -7 -164z m-544 -106 c0 -209
-14 -356 -74 -785 -25 -170 -47 -343 -51 -384 l-7 -74 -60 6 c-33 3 -63 8 -66
12 -4 4 -7 91 -6 193 1 214 -1 203 145 767 45 176 87 348 93 383 5 34 14 62
18 62 4 0 8 -81 8 -180z m1371 43 c67 -68 80 -87 99 -148 43 -130 89 -229 122
-257 30 -26 31 -28 14 -52 -9 -14 -16 -32 -16 -41 0 -8 -4 -15 -10 -15 -5 0
-10 7 -10 16 0 8 -11 30 -25 48 -14 18 -25 40 -25 49 0 10 -4 17 -10 17 -5 0
-10 14 -10 30 0 25 -9 36 -45 62 -33 23 -44 37 -38 48 3 8 7 31 7 50 1 31 -2
35 -27 38 -27 3 -28 6 -25 50 3 42 1 47 -19 50 -13 2 -23 9 -23 16 0 16 -51
110 -62 114 -4 2 -8 8 -8 13 0 18 34 -9 111 -88z m779 77 c0 -5 -8 -10 -17
-10 -15 0 -16 2 -3 10 19 12 20 12 20 0z m-860 -62 c20 -43 28 -101 12 -82 -5
5 -14 29 -21 53 -7 23 -15 49 -18 57 -3 8 -2 14 1 14 4 0 16 -19 26 -42z m-70
-33 c0 -8 -4 -15 -10 -15 -5 0 -10 7 -10 15 0 8 5 15 10 15 6 0 10 -7 10 -15z
m60 -82 c0 -7 -4 -13 -10 -13 -5 0 -10 -7 -10 -16 0 -9 -5 -12 -12 -8 -6 4 -8
3 -5 -3 3 -5 -9 -25 -28 -43 -19 -19 -35 -28 -35 -21 0 6 12 24 28 38 17 17
21 24 10 20 -24 -8 -23 -2 9 62 l28 54 12 -29 c7 -16 12 -35 13 -41z m70 13
c0 -2 3 -13 7 -23 6 -16 5 -16 -10 -4 -16 13 -17 11 -12 -25 4 -31 -3 -59 -34
-134 l-39 -95 -66 -2 c-36 -1 -66 0 -66 2 0 2 10 25 23 52 29 63 197 258 197
229z m429 -86 c-2 -50 -2 -50 -36 -50 -32 0 -33 1 -33 43 0 51 4 57 42 57 28
0 28 -1 27 -50z m-369 -7 c-2 -23 -107 -217 -115 -213 -18 9 -8 54 28 132 31
68 38 76 58 71 15 -4 20 -3 15 5 -4 7 -2 12 3 12 6 0 11 -3 11 -7z m423 -12
c-6 -23 -43 -36 -43 -16 0 13 26 34 42 35 3 0 4 -9 1 -19z m1469 -73 c104
-287 112 -327 103 -538 -8 -194 -30 -306 -84 -421 -39 -83 -52 -91 -135 -85
-39 4 -145 11 -236 17 -91 6 -169 14 -173 19 -5 4 -5 16 0 26 6 11 18 50 28
88 14 56 28 80 67 123 197 218 315 460 363 743 l13 75 2 -75 c5 -141 -1 -215
-21 -300 -42 -168 -86 -242 -297 -495 -82 -99 -147 -182 -145 -185 6 -6 111
104 188 198 169 205 232 312 271 457 22 85 26 121 28 256 0 86 3 155 5 153 2
-2 13 -27 23 -56z m-1162 -12 c0 -21 -16 -36 -40 -36 -5 0 -1 13 8 30 21 36
32 38 32 6z m-1035 4 c10 -16 -5 -49 -19 -44 -20 8 -47 -35 -39 -63 4 -18 1
-25 -14 -29 -16 -4 -73 -80 -73 -97 0 -3 8 -8 18 -10 9 -3 3 -5 -15 -6 -21 -1
-36 -8 -43 -21 -6 -11 -8 -20 -5 -20 10 0 -42 -93 -82 -147 -21 -29 -48 -67
-60 -85 -30 -43 -30 -23 2 103 63 248 117 338 237 398 65 33 83 37 93 21z
m-13 -92 c-7 -7 -12 -8 -12 -2 0 14 12 26 19 19 2 -3 -1 -11 -7 -17z m968 -35
c0 -21 -8 -33 -31 -46 -28 -15 -31 -16 -25 -1 6 14 47 72 54 73 1 1 2 -11 2
-26z m-809 -3 c22 -13 26 -57 6 -85 -11 -14 -22 -17 -45 -12 -18 4 -55 2 -84
-3 -28 -6 -53 -9 -55 -7 -5 6 31 101 42 109 15 11 114 9 136 -2z m-175 -27
c-10 -10 -19 5 -10 18 6 11 8 11 12 0 2 -7 1 -15 -2 -18z m600 12 c-22 -17
-36 -19 -36 -7 0 14 12 22 34 22 21 -1 21 -1 2 -15z m-651 -44 c-3 -6 -11 -11
-17 -11 -6 0 -6 6 2 15 14 17 26 13 15 -4z m19 -43 c-15 -29 -64 -105 -110
-169 -46 -64 -132 -206 -191 -316 -60 -110 -115 -211 -124 -224 -16 -23 -17
-22 -8 26 24 136 42 186 87 248 26 34 81 114 124 176 82 122 238 324 245 317
3 -2 -8 -28 -23 -58z m946 -22 c0 -22 -6 -36 -16 -40 -9 -4 -19 -4 -21 -2 -5
5 26 76 33 76 2 0 4 -15 4 -34z m-774 4 c37 -14 30 -39 -47 -175 -115 -203
-227 -466 -253 -590 -12 -59 -12 -60 -48 -63 -72 -6 -96 70 -62 202 22 85 128
348 168 415 85 145 127 201 154 207 15 3 32 7 37 9 17 6 23 5 51 -5z m-153
-27 c-4 -10 -24 -45 -46 -78 -75 -113 -99 -159 -158 -307 -98 -245 -112 -324
-73 -400 l15 -28 -68 0 c-55 0 -71 4 -90 22 -42 39 -36 56 137 373 120 221
318 512 283 418z m154 -170 c-25 -65 -63 -181 -86 -258 -58 -202 -64 -213
-160 -300 l-33 -30 7 45 c8 56 82 241 147 375 53 106 161 295 166 290 2 -2
-17 -57 -41 -122z m699 5 c-16 -11 -36 -10 -36 2 0 6 7 13 15 16 8 4 12 10 9
15 -3 5 -2 19 2 32 7 19 9 17 15 -18 4 -26 3 -43 -5 -47z m-59 -135 c-3 -10
-5 -4 -5 12 0 17 2 24 5 18 2 -7 2 -21 0 -30z m13 -59 c0 -8 -4 -12 -10 -9 -5
3 -10 10 -10 16 0 5 5 9 10 9 6 0 10 -7 10 -16z m23 -64 c3 -11 1 -23 -4 -26
-5 -3 -9 -1 -9 5 0 5 -3 16 -6 25 -3 9 -2 16 4 16 5 0 12 -9 15 -20z m45 -133
c5 -24 -15 -21 -28 4 -10 18 -9 20 7 17 10 -2 19 -11 21 -21z m111 -13 c28
-11 49 -30 70 -63 31 -48 65 -131 57 -139 -3 -2 -17 -1 -31 2 -26 7 -115 89
-115 107 0 14 -18 11 -23 -3 -2 -7 -3 -5 -1 5 1 9 -6 22 -17 27 -13 8 -19 21
-19 45 0 41 16 45 79 19z"/>
<path d="M2629 2805 c-14 -8 -34 -25 -43 -39 -10 -16 -22 -23 -31 -20 -10 4
-15 0 -15 -10 0 -32 30 -30 65 4 19 18 32 36 30 40 -5 8 46 20 79 19 17 0 15
-3 -9 -11 -37 -13 -65 -37 -65 -55 0 -18 6 -17 34 12 28 28 91 34 142 15 22
-9 29 -8 36 5 5 8 16 15 23 15 21 0 19 17 -2 29 -28 15 -214 12 -244 -4z m208
-21 c-3 -3 -12 -4 -19 -1 -8 3 -5 6 6 6 11 1 17 -2 13 -5z"/>
<path d="M1762 2783 c-66 -27 -122 -84 -122 -125 0 -31 29 -20 49 20 25 48 47
67 96 82 34 10 50 9 95 -4 71 -21 90 -20 90 3 0 21 -30 37 -39 22 -4 -6 -25
-7 -56 -2 l-50 9 50 2 c38 1 45 4 30 10 -35 15 -78 10 -143 -17z"/>
<path d="M1910 2603 c-60 -10 -119 -36 -145 -63 -16 -17 -39 -30 -52 -30 -16
0 -23 -6 -23 -20 0 -26 14 -25 67 5 23 14 43 21 43 15 0 -17 36 -11 64 11 15
11 33 19 40 16 7 -3 18 -1 24 5 6 6 28 14 49 17 29 5 39 11 41 29 3 20 0 22
-40 21 -24 -1 -54 -4 -68 -6z m70 -10 c-8 -3 -30 -12 -47 -19 -18 -7 -33 -9
-33 -5 0 9 55 29 80 29 13 0 13 0 0 -5z m-100 -20 c0 -10 -57 -43 -73 -43 -15
0 1 15 38 34 35 18 35 18 35 9z"/>
<path d="M2126 2538 c-9 -35 -8 -38 18 -38 30 0 37 9 29 38 -7 29 -39 28 -47
0z m34 -9 c0 -5 -4 -9 -10 -9 -5 0 -10 7 -10 16 0 8 5 12 10 9 6 -3 10 -10 10
-16z"/>
<path d="M2495 2360 c-3 -5 -31 -17 -63 -27 -31 -9 -73 -27 -92 -40 -21 -14
-50 -23 -72 -23 -27 0 -38 -4 -38 -15 0 -10 10 -15 29 -15 40 0 91 20 91 35 0
20 22 32 74 39 l49 6 -41 -30 c-23 -16 -49 -30 -57 -30 -8 0 -15 -4 -15 -10 0
-17 21 -11 79 24 62 38 101 72 101 86 0 13 -37 13 -45 0z"/>
<path d="M3575 902 c-17 -4 -35 -17 -42 -32 -17 -34 -18 -224 0 -238 6 -5 45
-13 84 -17 57 -5 74 -4 77 6 20 59 14 231 -8 261 -14 19 -69 29 -111 20z m78
-112 c3 -38 3 -85 0 -105 -5 -34 -7 -35 -49 -35 l-44 0 0 105 0 105 44 0 43 0
6 -70z"/>
<path d="M3380 880 c-19 -19 -20 -31 -18 -143 l3 -122 60 -3 c47 -3 62 0 72
14 16 21 18 210 3 248 -8 23 -15 26 -55 26 -32 0 -51 -6 -65 -20z m98 -123 c3
-97 3 -97 -23 -107 -56 -21 -57 -20 -52 98 3 59 6 107 6 108 1 1 16 1 34 0
l32 -1 3 -98z"/>
<path d="M3429 573 c-1 -5 -1 -16 0 -25 2 -13 -5 -18 -23 -18 -30 0 -33 8 -8
26 16 12 16 13 0 14 -20 0 -40 -31 -29 -48 6 -10 75 -12 84 -2 2 3 7 17 11 33
5 23 3 27 -14 27 -11 0 -21 -3 -21 -7z"/>
<path d="M3588 550 c-3 -17 -3 -31 -2 -33 1 -1 24 -1 51 1 45 3 49 6 48 30 0
21 -5 26 -24 26 -14 0 -26 -5 -29 -12 -2 -8 3 -12 13 -10 10 2 20 -3 22 -9 3
-9 -6 -13 -26 -13 -26 0 -31 4 -31 25 0 35 -17 31 -22 -5z"/>
<path d="M3709 578 c-6 -24 -5 -58 2 -58 5 0 9 14 9 30 0 17 -2 30 -5 30 -3 0
-5 -1 -6 -2z"/>
<path d="M3731 548 c0 -28 2 -30 9 -13 12 28 12 45 0 45 -5 0 -10 -15 -9 -32z"/>
<path d="M3486 545 c-11 -29 -7 -33 22 -26 15 4 27 14 27 22 0 20 -41 24 -49
4z m34 -5 c0 -5 -4 -10 -10 -10 -5 0 -10 5 -10 10 0 6 5 10 10 10 6 0 10 -4
10 -10z"/>
</g>
</svg>
