
        <?xml version="1.0" encoding="UTF-8" standalone="no"?>
        <svg
            version="1.1"
            width="1024"
            height="1024 "
            viewBox="0 0 1024  1024 "
            xmlns="http://www.w3.org/2000/svg">
            <svg xmlns="http://www.w3.org/2000/svg" width="677" height="685" viewBox="0 0 677 685" version="1.1">
	<rect x="0" y="0" width="100%" height="100%" fill="white" />
	<path d="M 263.332 49.578 C 263.043 50.331, 260.688 52.251, 258.100 53.844 C 255.511 55.436, 247.342 61.872, 239.947 68.144 C 232.551 74.417, 222.411 82.913, 217.414 87.025 C 180.051 117.766, 151.356 144.218, 145.057 153.727 C 138.329 163.886, 133.668 186.067, 131.446 218.500 C 131.058 224.160, 131.138 228.139, 131.631 227.667 C 132.109 227.209, 133.017 220.234, 133.650 212.167 C 135.699 186.017, 139.447 167.568, 144.651 158 C 149.819 148.500, 183.427 116.753, 213.990 92.500 C 216.070 90.850, 226.947 81.801, 238.163 72.391 C 249.378 62.981, 260.038 54.514, 261.852 53.577 C 263.981 52.476, 267.867 51.806, 272.824 51.686 C 285.007 51.391, 328.275 53.192, 330.704 54.096 L 332.908 54.915 329.318 65.208 C 327.344 70.868, 325.115 77.862, 324.364 80.750 C 323.614 83.638, 322.327 88.588, 321.504 91.750 C 317.799 105.992, 314.890 120.252, 313.905 128.997 C 313.316 134.220, 312.363 139.063, 311.785 139.759 C 311.207 140.455, 310.503 146.291, 310.218 152.727 L 309.702 164.431 299.032 176.965 C 293.163 183.859, 284.390 194.450, 279.536 200.500 C 274.682 206.550, 270.543 211.696, 270.337 211.935 C 270.132 212.174, 266.485 212.399, 262.233 212.435 C 255.333 212.493, 254.502 212.704, 254.501 214.397 C 254.500 215.666, 253.342 216.695, 251 217.508 C 245.687 219.352, 233.537 225.648, 232.213 227.244 C 230.664 229.110, 231.909 233.349, 236.342 241.310 C 238.238 244.714, 241.033 249.750, 242.553 252.500 C 250.417 266.728, 261.255 280.361, 266.439 282.545 L 269.500 283.835 263.372 286.495 L 257.243 289.156 256.567 325.828 C 256.124 349.833, 255.415 365.091, 254.514 370 C 253.757 374.125, 252.839 379.750, 252.475 382.500 C 252.111 385.250, 250.681 392.450, 249.298 398.500 C 247.915 404.550, 246.206 412.425, 245.500 416 C 242.727 430.039, 236.050 454.120, 234.323 456.313 C 233.320 457.585, 228 463.467, 222.500 469.384 L 212.500 480.142 211.740 475.821 C 211.322 473.444, 210.701 460.025, 210.359 446 C 210.017 431.975, 209.358 419.488, 208.894 418.250 C 208.013 415.903, 204.726 415.254, 202.109 416.911 C 200.937 417.654, 200.909 419.581, 201.929 429.146 C 202.595 435.391, 203.337 442.525, 203.577 445 C 205.518 464.955, 209.095 485.205, 211.109 487.631 C 212.774 489.637, 219.330 488.916, 222.084 486.424 C 223.144 485.464, 224.177 484.864, 224.377 485.089 C 224.578 485.315, 222.101 490.225, 218.872 496 C 209.608 512.571, 199.937 536.408, 193.717 558 C 188.229 577.050, 187.369 582.646, 185.458 611.750 C 185.087 617.388, 184.406 622, 183.943 622 C 182.264 622, 178.102 615.345, 175.580 608.631 C 172.841 601.338, 172.342 597.058, 174.035 595.365 C 174.749 594.651, 174.705 590.629, 173.894 582.415 C 172.404 567.316, 173.350 525.817, 175.572 508.817 C 176.457 502.043, 177.253 492, 177.341 486.500 C 177.490 477.114, 177.377 476.500, 175.500 476.500 C 173.572 476.500, 173.467 477.473, 172.580 503.500 C 172.074 518.350, 171.624 543.887, 171.580 560.250 C 171.508 586.983, 170.998 594.462, 169.706 587.750 C 169.428 586.310, 169.223 586.810, 169.136 589.139 C 168.876 596.104, 178.684 626.177, 181.607 627.374 C 182.215 627.623, 183.790 627.292, 185.107 626.637 C 187.462 625.465, 187.509 625.163, 188.096 607.473 C 188.847 584.799, 191.960 567.535, 198.547 549.500 C 199.953 545.650, 202.370 538.900, 203.918 534.500 C 210.434 515.981, 224.866 486.721, 230.307 481 C 232.138 479.075, 241.615 470.075, 251.368 461 C 275.315 438.718, 302.855 407.506, 314.501 389.448 C 327.201 369.757, 330.947 364.351, 334.230 360.975 C 339.797 355.252, 341.261 352.466, 340.507 349.032 C 340.139 347.355, 339.393 346.257, 338.850 346.592 C 338.308 346.928, 338.096 347.809, 338.381 348.550 C 338.665 349.291, 338.145 351.383, 337.225 353.199 L 335.552 356.500 334.727 352 C 334.273 349.525, 333.246 345.475, 332.446 343 C 330.729 337.693, 330.676 337, 331.987 337 C 332.531 337, 334.138 338.843, 335.560 341.094 C 336.981 343.346, 338.324 345.009, 338.543 344.790 C 339.393 343.940, 334.739 336.059, 332.534 334.614 C 329.299 332.494, 325 331.512, 325 332.892 C 325 333.501, 325.434 334, 325.965 334 C 326.495 334, 327.434 334.943, 328.051 336.095 C 329.071 338.001, 328.962 338.126, 326.836 337.480 C 323.173 336.367, 319.899 332.892, 320.558 330.817 C 320.978 329.493, 320.615 329, 319.222 329 C 316.950 329, 314.908 326.783, 312.773 322 C 311.914 320.075, 309.650 315.125, 307.743 311 C 303.511 301.848, 302.577 299, 303.805 299 C 305.533 299, 314.463 303.272, 317.500 305.551 C 319.919 307.367, 330.579 310, 335.509 310 C 335.853 310, 335.856 310.880, 335.514 311.955 C 334.760 314.331, 340.574 318.955, 349 322.682 C 352.025 324.020, 361.700 328.640, 370.500 332.947 C 379.300 337.255, 389.092 341.814, 392.261 343.078 C 395.503 344.372, 399.397 346.889, 401.168 348.834 C 404.133 352.093, 404.391 352.186, 405.657 350.455 C 408.234 346.930, 407.290 345.456, 401.250 343.575 C 383.376 338.008, 335.260 314.406, 337.408 312.259 C 337.662 312.004, 340.262 312.573, 343.185 313.522 C 348.146 315.132, 351.170 316.475, 360.030 321.003 C 363.499 322.775, 368.442 322.712, 369.574 320.881 C 369.873 320.396, 371.022 320, 372.126 320 C 373.741 320, 374.003 319.559, 373.463 317.750 C 372.524 314.604, 370.138 311, 368.995 311 C 368.467 311, 365.890 308.933, 363.268 306.407 C 360.645 303.880, 356.250 300.675, 353.500 299.283 C 350.750 297.892, 346.363 295.196, 343.750 293.292 C 341.137 291.388, 339 290.306, 339 290.889 C 339 291.472, 340.350 292.647, 342 293.500 C 343.650 294.353, 345 295.481, 345 296.005 C 345 296.530, 346.697 297.825, 348.771 298.883 C 350.846 299.942, 354.996 302.650, 357.994 304.903 C 363.373 308.945, 363.446 309.070, 363.613 314.499 C 363.706 317.525, 363.569 320, 363.308 320 C 363.048 320, 359.326 318.263, 355.039 316.139 C 350.752 314.016, 345.952 311.956, 344.372 311.562 C 341.182 310.766, 337.486 309.250, 328.348 304.986 C 324.160 303.032, 320.967 300.610, 318.348 297.400 C 312.155 289.810, 311.691 289.473, 305.575 288.104 L 299.740 286.798 300.481 280.649 C 300.888 277.267, 301.284 272.700, 301.361 270.500 L 301.500 266.500 290.500 265.850 C 272.979 264.815, 273.181 265.041, 277.993 251.856 C 279.640 247.344, 280.795 243.462, 280.561 243.227 C 279.521 242.188, 274.775 253.784, 274.281 258.571 C 273.747 263.743, 273.814 263.916, 277.117 265.930 C 279.889 267.620, 282.171 267.993, 289.750 267.996 C 300.398 268.001, 299.725 267.042, 297.863 279.561 L 296.727 287.204 290.313 286.517 C 282.118 285.639, 271.902 282.720, 267.498 279.999 C 262.775 277.080, 253.527 265.323, 245.583 252.138 C 237.635 238.946, 233.609 230.442, 234.573 228.883 C 235.680 227.091, 255.786 218, 258.641 218 C 261.593 218, 266.721 223.084, 278.745 237.933 C 279.821 239.262, 281.556 240.463, 282.601 240.602 C 283.645 240.741, 287.196 241.800, 290.491 242.956 C 294.179 244.249, 296.613 244.661, 296.824 244.028 C 297.012 243.463, 297.756 243, 298.476 243 C 299.197 243, 300.070 242.261, 300.417 241.357 C 301.170 239.392, 300.191 238.073, 299.186 239.700 C 297.837 241.881, 293.185 242.222, 288.048 240.516 L 283 238.839 283 233.979 C 283 231.305, 283.450 228.840, 284 228.500 C 285.737 227.426, 285.082 225, 283.055 225 C 281.449 225, 281.056 225.815, 280.805 229.672 C 280.637 232.241, 279.972 234.517, 279.326 234.730 C 278.680 234.942, 277.015 233.177, 275.624 230.808 C 274.234 228.439, 271.049 224.494, 268.548 222.042 C 266.047 219.590, 264 217.299, 264 216.950 C 264 216.602, 265.745 215.794, 267.878 215.155 C 270.992 214.222, 272.998 212.370, 278.068 205.746 C 290.984 188.875, 312.472 164.775, 315.425 163.850 C 317.425 163.223, 317.419 163.196, 315.250 163.100 C 312.594 162.982, 312.544 162.254, 314.007 145 C 316.198 119.167, 320.725 98.647, 331.046 67.750 C 334.137 58.498, 335.744 55.003, 336.903 55.009 C 337.781 55.014, 340.750 56.125, 343.500 57.478 C 346.250 58.831, 349.021 59.952, 349.659 59.969 C 350.296 59.986, 357.747 63.065, 366.217 66.812 C 398.169 80.946, 414.930 95.567, 437.506 129 C 447.546 143.868, 451.934 149.265, 451.973 146.792 C 451.988 145.852, 449.530 141.577, 446.511 137.292 C 443.491 133.006, 439.421 127.127, 437.465 124.227 C 435.509 121.327, 430.379 114.577, 426.064 109.227 C 405.490 83.717, 388.016 71.991, 349 57.514 C 339.803 54.102, 337.239 52.722, 336.195 50.624 C 334.959 48.137, 334.515 48.006, 327.695 48.116 C 323.738 48.180, 321.288 48.438, 322.250 48.689 C 323.212 48.941, 324 49.843, 324 50.695 C 324 52.057, 321.995 52.162, 307.250 51.566 C 298.038 51.194, 289.375 50.499, 288 50.021 C 286.625 49.543, 280.630 48.940, 274.679 48.680 C 266.112 48.306, 263.748 48.494, 263.332 49.578 M 297.776 48.733 C 300.128 48.945, 303.728 48.942, 305.776 48.727 C 307.824 48.512, 305.900 48.339, 301.500 48.343 C 297.100 48.346, 295.424 48.522, 297.776 48.733 M 328 51 C 328 51.550, 329.377 52, 331.059 52 C 332.844 52, 333.861 51.583, 333.500 51 C 333.160 50.450, 331.784 50, 330.441 50 C 329.098 50, 328 50.450, 328 51 M 402.629 148.983 C 391.066 155.032, 389.086 156.256, 381.560 162 L 375.664 166.500 362.082 166.839 C 354.612 167.026, 345.350 166.705, 341.500 166.125 C 337.650 165.546, 331.800 164.827, 328.500 164.527 L 322.500 163.983 327.500 165.397 C 334.951 167.505, 362.887 170.148, 369.500 169.371 C 374.180 168.821, 376.553 167.754, 382.846 163.369 C 390.012 158.376, 407.822 147.773, 411.260 146.454 C 412.449 145.997, 412.954 146.848, 413.474 150.181 C 413.843 152.557, 414.360 155.260, 414.621 156.189 C 414.910 157.215, 414.276 158.317, 413.008 158.996 C 411.327 159.895, 410.270 159.712, 407.592 158.057 C 403.012 155.226, 401.874 155.484, 405.500 158.531 C 409.542 161.926, 418.816 168, 419.960 168 C 421.811 168, 422.385 170.642, 422.990 181.956 C 423.506 191.620, 424.039 194.389, 426.259 198.961 C 427.717 201.965, 428.720 204.613, 428.487 204.846 C 427.565 205.768, 422.085 202.683, 419.010 199.511 C 417.222 197.665, 415.212 196.365, 414.544 196.622 C 413.876 196.878, 409.501 195.544, 404.822 193.658 C 400.142 191.771, 394.781 189.892, 392.907 189.483 C 387.764 188.357, 374.102 182.974, 373.365 181.782 C 372.924 181.068, 374.595 180.956, 378.609 181.429 C 387.983 182.535, 396.295 185.136, 398.754 187.732 C 401.189 190.303, 403 189.999, 403 187.021 C 403 184.886, 397.251 182.683, 387.500 181.082 C 384.200 180.540, 378.944 179.538, 375.819 178.856 C 368.427 177.243, 364.707 178.608, 365.184 182.758 C 365.485 185.368, 365.812 185.526, 372 186.039 C 375.575 186.335, 381.425 187.753, 385 189.189 C 388.575 190.626, 394.650 192.807, 398.500 194.037 C 409.191 197.451, 410.825 198.501, 411.186 202.185 C 411.454 204.917, 412.012 205.509, 415 206.235 C 416.925 206.703, 422.144 208.223, 426.599 209.612 C 434.605 212.110, 442.016 212.505, 442.683 210.470 C 442.868 209.903, 440.199 208.048, 436.751 206.348 C 427.952 202.009, 425.958 197.880, 425.048 182.108 C 424.679 175.724, 424.435 170.395, 424.505 170.267 C 424.575 170.139, 425.953 170.407, 427.566 170.863 C 432.523 172.264, 435.059 170.172, 431.023 168.012 C 429.442 167.166, 429.155 167.241, 429.594 168.385 C 430.069 169.623, 429.563 169.626, 425.822 168.407 C 420.590 166.702, 413 162.811, 413 161.834 C 413 160.688, 419.230 160.421, 422.750 161.417 C 424.538 161.922, 426 162.796, 426 163.359 C 426 163.922, 426.563 163.631, 427.250 162.713 C 427.938 161.795, 430.300 160.629, 432.500 160.122 C 434.700 159.615, 435.543 159.156, 434.372 159.100 C 433.202 159.045, 431.685 158.325, 431 157.500 C 430.315 156.675, 429.319 156, 428.787 156 C 427.183 156, 416.593 148.202, 415.242 146.026 C 414.549 144.912, 413.572 144, 413.069 144 C 412.566 144, 407.868 146.242, 402.629 148.983 M 415.375 152.125 C 415.719 153.844, 416 155.810, 416 156.495 C 416 157.199, 417.846 158, 420.250 158.338 C 422.587 158.668, 425.738 159.229, 427.250 159.585 C 430.338 160.313, 431.179 158.377, 428.250 157.285 C 427.288 156.927, 424.209 154.916, 421.409 152.817 C 418.609 150.718, 415.965 149, 415.534 149 C 415.103 149, 415.031 150.406, 415.375 152.125 M 451.250 149.662 C 450.563 149.940, 450 151.734, 450 153.649 C 450 155.564, 449.534 158.002, 448.965 159.066 C 448.100 160.681, 448.262 161, 449.946 161 C 452.063 161, 452.047 160.960, 454.076 171.500 C 455.581 179.318, 457.936 183.806, 462.871 188.264 C 468.415 193.273, 473.211 194.403, 488 194.185 C 494.875 194.083, 501.113 194.395, 501.862 194.878 C 503.896 196.190, 504.908 203.138, 504.956 216.135 C 504.998 227.121, 504.874 227.852, 502.750 229.247 C 499.239 231.552, 493.669 237.002, 494.241 237.574 C 494.524 237.858, 496.241 236.607, 498.056 234.795 C 501.681 231.174, 503.331 231.088, 506.830 234.336 C 509.083 236.427, 509.139 236.863, 508.518 247.499 C 507.799 259.831, 507.200 263.242, 505.893 262.434 C 504.418 261.522, 504.834 262.720, 508.558 270.115 C 513.431 279.791, 512.934 282.325, 506.500 280.612 C 499.095 278.640, 499.223 278.618, 502.402 281.336 C 505.768 284.214, 510.100 285.131, 512.397 283.451 C 514.761 281.723, 514.354 277.267, 511.215 270.500 C 508.692 265.062, 508.495 263.845, 509.114 257.500 C 511.033 237.816, 510.960 235.868, 508.214 233.322 L 505.671 230.966 505.861 213.233 C 505.972 202.877, 505.639 194.876, 505.062 194 C 504.252 192.772, 501.212 192.500, 488.286 192.500 C 473.004 192.500, 472.356 192.415, 468 189.848 C 460.026 185.148, 456.908 178.869, 454.503 162.676 C 453.653 156.954, 453.241 151.536, 453.586 150.636 C 454.217 148.993, 453.573 148.725, 451.250 149.662 M 451.079 158.583 C 451.127 159.748, 451.364 159.985, 451.683 159.188 C 451.972 158.466, 451.936 157.603, 451.604 157.271 C 451.272 156.939, 451.036 157.529, 451.079 158.583 M 413.387 201.118 C 413.470 202.683, 414.776 203.737, 418.382 205.153 C 425.240 207.846, 425.460 206.900, 419.173 201.734 C 415.184 198.456, 413.233 198.248, 413.387 201.118 M 130.502 232.250 C 130.207 233.488, 129.861 279.500, 129.733 334.500 L 129.500 434.500 131.816 445 C 134.518 457.249, 135.811 462.365, 141.169 482 C 145.924 499.427, 145.920 499.414, 146.541 498.792 C 147.146 498.188, 144.298 486.154, 142.996 483.810 C 142.480 482.880, 141.575 479.102, 140.986 475.415 C 140.397 471.727, 139.544 467.988, 139.089 467.105 C 138.635 466.222, 137.952 463.700, 137.572 461.500 C 137.192 459.300, 135.980 453.450, 134.879 448.500 C 133.778 443.550, 132.159 436.257, 131.282 432.293 C 129.860 425.871, 129.761 415.959, 130.367 341.293 C 130.740 295.207, 131.325 251.313, 131.665 243.750 C 132.238 231.027, 131.807 226.771, 130.502 232.250 M 489.885 239.865 C 485.951 242.942, 477.399 246.922, 471.320 248.505 C 464.852 250.189, 463.667 251.030, 464.158 253.580 C 464.406 254.867, 466.479 255.898, 471.501 257.232 C 478.402 259.064, 479.414 259.079, 499.750 257.657 C 500.988 257.571, 502 256.998, 502 256.385 C 502 255.772, 502.900 254.126, 504 252.727 C 506.944 248.985, 506.433 247.504, 503.250 250.550 C 497.020 256.512, 488.763 258.165, 476.434 255.919 C 469.142 254.591, 468.156 253.763, 471.730 251.968 C 479.515 248.058, 489.892 241.776, 491.496 240.004 C 493.773 237.489, 493.008 237.423, 489.885 239.865 M 473 263.345 C 473 264.085, 473.788 265.387, 474.750 266.240 C 477.477 268.654, 496.310 279, 497.978 279 C 498.799 279, 497.677 278.044, 495.485 276.875 C 490.399 274.163, 477.450 265.247, 475.922 263.406 C 474.445 261.626, 473 261.596, 473 263.345 M 317.198 268.949 C 321.822 269.848, 323.006 270.838, 329.811 279.500 C 332.836 283.350, 335.746 286.950, 336.278 287.500 C 337.546 288.812, 335.011 283.911, 333.592 282.307 C 332.991 281.629, 330.700 278.609, 328.500 275.598 C 324.098 269.573, 321.526 267.942, 316.703 268.115 L 313.500 268.230 317.198 268.949 M 268.686 287.017 C 263.630 288.534, 262.795 289.883, 263.163 295.945 C 263.348 299, 263.112 301.500, 262.638 301.500 C 262.163 301.500, 261.603 299.065, 261.393 296.089 C 261.008 290.642, 260.503 289.163, 259.404 290.263 C 259.076 290.590, 258.608 305.403, 258.364 323.179 C 257.907 356.394, 257.064 369.214, 254.361 384 C 251.950 397.184, 248.115 414.740, 245.841 423 C 244.066 429.447, 241.418 440.035, 239.339 449 C 238.606 452.160, 237.871 452.901, 256.114 432.086 C 278.372 406.691, 282.272 402.025, 287.538 394.500 C 305.746 368.477, 306.577 366.699, 307.422 352 C 308.410 334.782, 308.789 333.028, 311.900 331.242 L 314.589 329.700 309.915 320.100 C 307.344 314.820, 303.355 305.946, 301.050 300.380 L 296.860 290.259 289.180 288.697 C 278.665 286.558, 272.027 286.014, 268.686 287.017 M 511.568 288.250 C 511.955 289.488, 514.235 293.972, 516.636 298.215 C 521.534 306.875, 521.575 307, 519.515 307 C 517.220 307, 501.391 312.438, 492.494 316.282 C 482.276 320.698, 467.094 326.343, 459.881 328.410 C 454.888 329.840, 447.509 334.466, 443.056 338.957 C 432.892 349.208, 420.134 367.347, 414.037 380.217 C 408.795 391.283, 401.525 411.854, 400.426 418.731 C 399.418 425.041, 397.402 426.107, 396.559 420.775 C 395.953 416.935, 395.102 415.878, 388.192 410.380 C 383.961 407.014, 375.073 400.622, 368.439 396.176 C 353.459 386.137, 347.108 379.567, 341.919 368.741 C 337.565 359.657, 337.622 362.911, 341.985 372.515 C 346.004 381.360, 353.082 388.399, 368.121 398.505 C 386.831 411.078, 392.338 415.846, 393.804 420.739 C 395.654 426.915, 395.225 433.839, 392.517 441.500 C 391.156 445.350, 390.063 449.850, 390.088 451.500 C 390.123 453.768, 390.667 452.864, 392.317 447.791 C 394.995 439.559, 397.190 436.756, 396.392 442.586 C 396.097 444.739, 395.438 448.660, 394.928 451.299 C 394.418 453.939, 394 457.651, 394 459.549 C 394 462.392, 394.371 463, 396.108 463 C 397.787 463, 398.108 463.459, 397.683 465.250 C 396.143 471.731, 393.877 488.038, 394.291 489.647 C 394.623 490.938, 394.803 490.684, 394.884 488.809 C 395 486.110, 397 483.686, 397 486.245 C 397 489.855, 402.408 498.123, 406.824 501.265 C 411 504.236, 412.141 504.570, 417.500 504.390 C 420.800 504.279, 430.025 502.510, 438 500.458 C 445.975 498.406, 454.618 496.521, 457.208 496.270 C 461.662 495.837, 462.024 495.991, 463.923 499.113 C 466.708 503.693, 472.404 519.815, 474.836 530 C 478.605 545.787, 480.967 556.485, 481.350 559.500 C 481.560 561.150, 482.165 563.625, 482.694 565 C 483.223 566.375, 484.256 570.087, 484.988 573.250 C 485.720 576.413, 486.698 579, 487.160 579 C 487.622 579, 488 579.873, 488 580.941 C 488 582.009, 488.395 583.126, 488.877 583.424 C 489.359 583.722, 490.283 586.067, 490.929 588.634 C 491.576 591.201, 492.692 594.472, 493.410 595.901 C 494.127 597.330, 495.015 600.073, 495.381 601.997 C 496.047 605.484, 496.043 605.488, 494.075 603.497 C 492.258 601.657, 483 581.337, 483 579.186 C 483 578.668, 482.297 577.661, 481.437 576.948 C 480.061 575.806, 479.961 576, 480.599 578.575 C 481.749 583.216, 490.855 605.488, 493.639 610.470 C 496.288 615.210, 498.249 616.001, 501.486 613.634 C 503.306 612.303, 503.302 612.177, 501.339 608.850 C 496.745 601.065, 485.640 568.484, 482.472 553.500 C 479.798 540.851, 475.986 524.950, 474.321 519.500 C 471.493 510.242, 468.886 502.656, 467.817 500.571 C 466.164 497.345, 461.780 493, 460.178 493 C 459.382 493, 450.527 495.250, 440.500 498 C 430.473 500.750, 420.504 503, 418.346 503 C 413.200 503, 406.058 499.316, 403.377 495.278 C 398.298 487.630, 397.859 470.531, 402.390 456.844 C 404.691 449.892, 405.859 446.902, 409.946 437.500 C 410.902 435.300, 412.283 431.925, 413.014 430 C 413.746 428.075, 415.881 423.125, 417.759 419 C 419.638 414.875, 422.293 408.800, 423.659 405.500 C 431.652 386.201, 444.852 365.433, 456.712 353.499 C 464.537 345.624, 475.190 338.295, 495.858 326.565 C 505.340 321.184, 519.902 311, 518.115 311 C 517.464 311, 513.685 313.209, 509.716 315.909 C 505.747 318.608, 497.550 323.616, 491.500 327.038 C 479.137 334.029, 464.620 343.563, 458.259 348.871 C 446.971 358.287, 430.863 383.087, 420.955 406.301 C 419.265 410.261, 417.483 414.400, 416.996 415.500 C 416.508 416.600, 415.239 419.525, 414.176 422 C 403.020 447.965, 400.102 454.920, 399.305 457.438 C 397.859 462.004, 396.003 461.891, 397.075 457.302 C 397.563 455.211, 398.231 448.325, 398.559 442 C 398.888 435.675, 399.537 429.600, 400.001 428.500 C 400.466 427.400, 401.631 423.125, 402.589 419 C 407.908 396.116, 416.838 375.853, 429.099 358.849 C 442.810 339.833, 446.797 336.130, 458.500 331.541 C 462.350 330.032, 465.928 328.392, 466.450 327.898 C 466.972 327.404, 468.430 327, 469.688 327 C 470.946 327, 479.519 323.819, 488.738 319.931 C 505.261 312.963, 513.094 310.172, 518 309.503 C 521.464 309.031, 521.354 309.062, 522.775 308.160 C 523.763 307.533, 523.447 306.019, 521.366 301.426 C 516.674 291.066, 509.386 281.265, 511.568 288.250 M 301.370 291.522 C 301.716 292.425, 302 293.758, 302 294.484 C 302 295.210, 303.462 296.293, 305.250 296.890 L 308.500 297.975 305.750 295.535 C 302.781 292.901, 302.365 292, 304.118 292 C 305.375 292, 312.511 297.991, 311.285 298.017 C 310.853 298.026, 311.981 298.982, 313.792 300.142 C 315.602 301.301, 317.274 302.060, 317.505 301.828 C 317.737 301.596, 316.228 298.952, 314.153 295.953 C 310.559 290.761, 310.148 290.485, 305.559 290.190 C 301.432 289.924, 300.830 290.116, 301.370 291.522 M 366.996 314.496 C 368.286 315.869, 369.562 316.772, 369.831 316.502 C 370.495 315.838, 366.948 312, 365.671 312 C 365.110 312, 365.707 313.123, 366.996 314.496 M 311.646 333.764 C 311.386 334.184, 310.613 341.722, 309.929 350.514 C 308.774 365.350, 308.462 366.898, 305.592 372.036 C 298.485 384.759, 280.715 408.125, 264.794 425.682 C 248.162 444.024, 239.262 454.906, 237.135 459.500 C 236.117 461.700, 234.029 466.425, 232.496 470 C 230.962 473.575, 229.099 477.388, 228.354 478.473 C 225.323 482.888, 227.465 481.318, 236.313 472.637 C 241.436 467.612, 252.155 457.200, 260.133 449.500 C 276.630 433.579, 302.028 404.378, 310.747 391.306 C 313.977 386.463, 318.218 379.125, 320.171 375 C 322.124 370.875, 325.831 364.806, 328.409 361.513 C 333.411 355.125, 333.669 353.356, 330.909 344.420 C 329.271 339.121, 313.669 330.490, 311.646 333.764 M 203.404 417.996 C 202.745 418.655, 202.671 421.578, 203.196 426.258 C 203.643 430.241, 204.616 439.161, 205.360 446.081 C 207.492 465.933, 208.973 465.643, 208.321 445.500 C 207.486 419.739, 206.603 414.797, 203.404 417.996 M 389.195 457.500 C 389.215 459.150, 389.439 459.704, 389.693 458.731 C 389.947 457.758, 389.930 456.408, 389.656 455.731 C 389.382 455.054, 389.175 455.850, 389.195 457.500 M 226.801 467.856 C 218.453 477.227, 213 484.393, 213 485.991 C 213 486.546, 214.124 487, 215.497 487 C 219.860 487, 225.708 480.538, 230.635 470.272 C 233.109 465.117, 234.991 460.520, 234.817 460.056 C 234.642 459.592, 231.035 463.102, 226.801 467.856 M 386.232 472 C 386.232 473.925, 386.438 474.712, 386.689 473.750 C 386.941 472.788, 386.941 471.212, 386.689 470.250 C 386.438 469.288, 386.232 470.075, 386.232 472 M 385.195 478.500 C 385.215 480.150, 385.439 480.704, 385.693 479.731 C 385.947 478.758, 385.930 477.408, 385.656 476.731 C 385.382 476.054, 385.175 476.850, 385.195 478.500 M 174 487 C 174 491.950, 174.387 496, 174.860 496 C 176.003 496, 177.010 485.839, 176.301 481.465 C 175.247 474.975, 174 477.976, 174 487 M 332.975 480.565 C 331.309 484.947, 331.651 485.304, 336.848 484.615 C 340.335 484.152, 343.495 484.523, 348.098 485.937 C 356.400 488.485, 363.861 490.242, 367 490.385 C 369.131 490.483, 370.212 491.940, 374.323 500.250 C 378.827 509.355, 381 512.043, 381 508.511 C 381 507.693, 380.228 506.121, 379.284 505.018 C 378.340 503.916, 375.946 499.993, 373.964 496.302 L 370.360 489.590 359.930 486.932 C 348.563 484.036, 341.384 481.443, 338.921 479.345 C 336.467 477.254, 334.045 477.751, 332.975 480.565 M 383.158 490 C 383.158 491.375, 383.385 491.938, 383.662 491.250 C 383.940 490.563, 383.940 489.438, 383.662 488.750 C 383.385 488.063, 383.158 488.625, 383.158 490 M 394 501.876 C 394 507.373, 394.479 513.137, 395.064 514.685 C 396.144 517.545, 400.767 523, 402.110 523 C 403.621 523, 409.270 517.533, 411.642 513.775 C 413.189 511.324, 413.866 509.153, 413.471 507.908 C 412.919 506.169, 412.523 506.407, 410.172 509.887 C 408.702 512.062, 406.230 515.261, 404.677 516.995 C 402.067 519.908, 401.689 520.038, 399.677 518.704 C 396.933 516.886, 396.266 513.813, 396.118 502.309 C 396.053 497.254, 395.550 492.840, 395 492.500 C 394.359 492.104, 394 495.468, 394 501.876 M 382.079 495.583 C 382.127 496.748, 382.364 496.985, 382.683 496.188 C 382.972 495.466, 382.936 494.603, 382.604 494.271 C 382.272 493.939, 382.036 494.529, 382.079 495.583 M 368.023 497.800 C 367.987 499.823, 370.955 505.084, 374.759 509.739 C 377.090 512.591, 378.004 514.547, 377.555 515.718 C 376.885 517.462, 373.872 535.510, 371.748 550.500 C 371.124 554.900, 370.588 562.138, 370.557 566.585 C 370.506 573.844, 370.782 575.071, 373.254 578.585 C 376.361 583.002, 383.965 588.771, 405 602.673 C 412.975 607.943, 424 615.277, 429.500 618.970 C 442.451 627.665, 443.485 628.179, 447.296 627.810 L 450.500 627.500 450.565 613.500 C 450.632 599.011, 451.786 591.383, 454.138 589.894 C 455.145 589.255, 454.934 589.027, 453.328 589.015 C 449.737 588.990, 448.500 594.557, 448.500 610.750 C 448.500 618.588, 448.282 625.001, 448.016 625 C 447.496 625, 440.355 621.637, 430.211 616.614 C 426.752 614.901, 421.352 611.478, 418.211 609.007 C 415.070 606.536, 407.100 601.068, 400.500 596.857 C 382.239 585.206, 377.256 581.293, 374.334 576.307 C 371.705 571.821, 371.689 571.676, 372.670 561.139 C 373.953 547.359, 378.879 517.196, 380.355 514.086 C 381.287 512.122, 381.221 511.583, 380 511.193 C 377.717 510.462, 371.636 503.791, 369.736 499.932 C 368.806 498.044, 368.035 497.085, 368.023 497.800 M 147.561 504.885 C 147.860 507.848, 148.720 511.673, 149.471 513.385 C 151.482 517.970, 151.238 514.507, 148.985 506.500 L 147.017 499.500 147.561 504.885 M 154.115 530 C 154.161 530.825, 154.560 532.625, 155 534 L 155.801 536.500 155.885 534 C 155.931 532.625, 155.533 530.825, 155 530 C 154.138 528.667, 154.040 528.667, 154.115 530 M 158.158 545 C 158.158 546.375, 158.385 546.938, 158.662 546.250 C 158.940 545.563, 158.940 544.438, 158.662 543.750 C 158.385 543.063, 158.158 543.625, 158.158 545 M 159.030 550.450 C 159.008 552.601, 159.299 553.101, 160.104 552.296 C 160.895 551.505, 160.903 550.670, 160.134 549.346 C 159.193 547.728, 159.057 547.864, 159.030 550.450 M 161.671 560 C 161.999 562.475, 162.638 565.175, 163.090 566 C 164.100 567.840, 163.036 560.322, 161.888 557.500 C 161.400 556.301, 161.313 557.302, 161.671 560 M 477.451 563.079 C 476.598 564.459, 478.956 573, 480.190 573 C 480.703 573, 480.835 571.543, 480.484 569.750 C 480.134 567.962, 479.877 565.487, 479.913 564.250 C 479.981 561.893, 478.592 561.233, 477.451 563.079 M 165.079 573.583 C 165.127 574.748, 165.364 574.985, 165.683 574.188 C 165.972 573.466, 165.936 572.603, 165.604 572.271 C 165.272 571.939, 165.036 572.529, 165.079 573.583 M 166.158 578 C 166.158 579.375, 166.385 579.938, 166.662 579.250 C 166.940 578.563, 166.940 577.438, 166.662 576.750 C 166.385 576.063, 166.158 576.625, 166.158 578" stroke="none" fill="black" fill-rule="evenodd"/>
</svg>
        </svg>
    