<?xml version="1.0" standalone="yes"?>
<svg xmlns="http://www.w3.org/2000/svg" width="251" height="204">
<path style="stroke:#000000; fill:none;" d="M35 41C35.0579 19.9963 53.296 15.9809 71 12.2106C101.082 5.80432 134.92 5.84146 165 12.2106C175.135 14.3567 190.226 17.261 197.442 25.3287C214.614 44.5262 173.074 51.0803 161 53.0802C119.038 60.0307 74.3823 57.9483 35 41C30.7794 51.0023 33.7832 62.6147 34.9498 73C39.3317 112.008 65.1127 154.664 107 160.7C138.159 165.19 158.597 149.31 180.722 130.201C183.803 127.54 183.916 123.339 186.005 120.039C194.526 106.582 199.008 90.3419 201.561 74C202.668 66.9151 200.006 53.5636 209.005 51.8889C213.805 50.9956 219.127 49.8936 224 50.4398C241.538 52.4053 244.56 69.2662 240.51 84C235.786 101.185 211.2 119.378 193 114M202 42L203 52M54 129C41.572 138.955 14.4331 137.321 9.31944 156C3.18696 178.4 39.6097 186.704 55 190.346C98.2418 200.578 148.302 199.606 191 187.421C203.833 183.759 234.698 173.995 226.485 155C219.048 137.799 196.241 138.849 183 130"/>
</svg>
